<?xml version="1.0"?>
<COLLADA xmlns="http://www.collada.org/2005/11/COLLADASchema" version="1.4.1">
    <asset>
        <contributor>
            <authoring_tool>J3D Ripoff Exporter</authoring_tool>
        </contributor>
        <created>2025-03-15T22:11:47.585Z</created>
        <modified>2025-03-15T22:11:47.585Z</modified>
		<unit meter="0.01" name="centimeter" ></unit>
        <up_axis>Y_UP</up_axis>
    </asset>
    <library_images>
        <image id="tex0">
            <init_from>noukou_new_0621_s3tc.png</init_from>
        </image>
        <image id="tex1">
            <init_from>noukou_new_0621_mask_s3tc.png</init_from>
        </image>
        <image id="tex_vc">
            <init_from>vertexColors_farm.png</init_from>
        </image>
    </library_images>
    <library_effects>
        <effect id="effect0">
            <profile_COMMON>
                <newparam sid="surface0">
                    <surface type="2D">
                        <init_from>tex0</init_from>
                    </surface>
                </newparam>
                <newparam sid="sampler0">
                    <sampler2D>
                        <source>surface0</source>
                    </sampler2D>
                </newparam>
                <technique sid="COMMON">
                    <blinn>
                        <diffuse>
                            <texture texture="sampler0" texcoord="UVSET0"></texture>
                        </diffuse>
                    </blinn>
                </technique>
            </profile_COMMON>
        </effect>
        <effect id="effect_vc">
            <profile_COMMON>
                <newparam sid="surface_vc">
                    <surface type="2D">
                        <init_from>tex_vc</init_from>
                    </surface>
                </newparam>
                <newparam sid="sampler_vc">
                    <sampler2D>
                        <source>surface_vc</source>
                    </sampler2D>
                </newparam>
                <technique sid="COMMON">
                    <blinn>
                        <diffuse>
                            <texture texture="sampler_vc" texcoord="UVSET0"></texture>
                        </diffuse>
                    </blinn>
                </technique>
            </profile_COMMON>
        </effect>
    </library_effects>
    <library_materials>
        <material id="mat0" name="tex_farm_v">
            <instance_effect url="#effect0"></instance_effect>
        </material>
        <material id="mat_vc" name="vertexColors">
            <instance_effect url="#effect_vc"></instance_effect>
        </material>
    </library_materials>
    <library_geometries>
        <geometry id="mesh0">
            <mesh>
                <source id="points0">
                    <float_array id="pointarray0" count="507">-2901.40673828125 1 2031.6387939453125 -2952.619140625 1 1953.7813720703125 -2849.24169921875 1 1935 -2941.75341796875 1 1915.886962890625 -2943.12890625 1 1876.489501953125 -3005.96142578125 1 1888.702880859375 -2956.612060546875 1 1839.445556640625 -3012.594970703125 1 1870.477294921875 -2980.88232421875 1 1808.380859375 -3024.535888671875 1 1855.1937255859375 -3013.564208984375 1 1786.3367919921875 -3040.615478515625 1 1844.3480224609375 -3051.458740234375 1 1775.470703125 -3059.25927734375 1 1839.001953125 -3078.642822265625 1 1839.6788330078125 -3066.81396484375 1 1900.531494140625 -3096.868408203125 1 1846.3125 -3112.15185546875 1 1858.2532958984375 -3127.900146484375 1 1790.329345703125 -3158.96484375 1 1814.5997314453125 -3191.5615234375 1 1779.6217041015625 -3181.009033203125 1 1847.2816162109375 -3255 1 1865 -3191.874755859375 1 1885.176025390625 -3190.499267578125 1 1924.5733642578125 -3127.666748046875 1 1912.3599853515625 -3177.016357421875 1 1961.6175537109375 -3121.033203125 1 1930.585693359375 -3152.745849609375 1 1992.68212890625 -3109.09228515625 1 1945.869384765625 -3120.06396484375 1 2014.726318359375 -3093.012939453125 1 1956.7149658203125 -3082.169677734375 1 2025.59228515625 -3074.369140625 1 1962.06103515625 -3054.985595703125 1 1961.3841552734375 -3036.760009765625 1 1954.7506103515625 -3021.476318359375 1 1942.8096923828125 -3005.72802734375 1 2010.733642578125 -2974.66357421875 1 1986.4632568359375 -2965 1 2090 -3259 1 1787 -3330 1 1825 -3315.740966796875 1 1754.1966552734375 -3355.15625 1 1753.5086669921875 -3344.04150390625 1 1690.47265625 -3362.3798828125 1 1684.1583251953125 -3333.276611328125 1 1629.4229736328125 -3377.86962890625 1 1672.48583984375 -3388.994140625 1 1656.5982666015625 -3423.91357421875 1 1716.949951171875 -3446.524658203125 1 1684.6575927734375 -3558.6337890625 0.9999449849128723 1719 -3458.050537109375 1 1646.958740234375 -3556.632080078125 1 1603 -3457.362548828125 1 1607.543212890625 -3444.52783203125 1 1570.26953125 -3388.011962890625 1 1600.319580078125 -3420.8037109375 1 1538.7861328125 -3376.339599609375 1 1584.8299560546875 -3388.51123046875 1 1516.1749267578125 -3360.451904296875 1 1573.7052001953125 -3350.812255859375 1 1504.649169921875 -3341.904296875 1 1568.03466796875 -3311.39697265625 1 1505.337158203125 -3322.51171875 1 1568.3731689453125 -3304.17333984375 1 1574.6875 -3288.68359375 1 1586.3599853515625 -3615 1 2070 -3531.290283203125 1 2058.882568359375 -3570 1 2140 -3508.118896484375 1 2090.775146484375 -3476.226318359375 1 2113.946533203125 -3462.864013671875 1 2045.52001953125 -3447.1708984375 1 2056.921630859375 -3418.77685546875 1 2001.87890625 -3428.72216796875 1 2062.916015625 -3409.32421875 1 2062.916015625 -3399.312744140625 1 2126.12841796875 -3390.8759765625 1 2056.921630859375 -3361.820556640625 1 2113.946533203125 -3375.18310546875 1 2045.52001953125 -3329.92822265625 1 2090.775146484375 -3363.78125 1 2029.826904296875 -3306.7568359375 1 2058.882568359375 -3357.787109375 1 2011.3785400390625 -3294.57470703125 1 2021.390625 -3357.787109375 1 1991.9808349609375 -3294.57470703125 1 1981.968994140625 -3363.78125 1 1973.532470703125 -3306.7568359375 1 1944.4769287109375 -3329.92822265625 1 1912.584228515625 -3280 1 1940 -3118.440673828125 1 1727.086669921875 -3180 1 1700 -3101.6982421875 1 1628.5364990234375 -3209.190673828125 1 1651.302490234375 -3208.502685546875 1 1611.8870849609375 -3272.226806640625 1 1640.1876220703125 -3271.888427734375 1 1620.79541015625 -3277.55908203125 1 1602.24755859375 -3242.6396484375 1 1541.89599609375 -3274.123046875 1 1518.1715087890625 -3231.06201171875 1 1454.97314453125 -3295.4111328125 1 1426.96923828125 -3371.34375 1 1421.1197509765625 -3412.591064453125 1 1800.888671875 -3399.312744140625 1 1877.23095703125 -3438.734375 1 1877.23095703125 -3409.32421875 1 1940.4434814453125 -3428.72216796875 1 1940.443603515625 -3447.1708984375 1 1946.4376220703125 -3462.86376953125 1 1957.83935546875 -3476.226318359375 1 1889.4129638671875 -3508.118896484375 1 1912.584228515625 -3569.413818359375 1 1804.822509765625 -3609.611083984375 1 1913.0634765625 -2878.220947265625 1 1777.44384765625 -2935 1 1720 -3020 1 1689.8873291015625 -3090.856201171875 1 1776.8465576171875 -3278.0419921875 1 1742.6710205078125 -3306.101318359375 1 1685.140625 -3290.213623046875 1 1674.015869140625 -3278.541259765625 1 1658.526123046875 -3222.025146484375 1 1688.5762939453125 -3543.47216796875 1 2021.390625 -3625.556396484375 1 1986.13330078125 -3543.47216796875 1 1981.968994140625 -3531.290283203125 1 1944.4769287109375 -3474.265625 1 1973.532470703125 -3223.66015625 1 2007.0362548828125 -3190 1 2050 -3261.664794921875 1 2057.055419921875 -3200 1 2115 -3275 1 2105 -3255 1 2190 -3315 1 2199.976318359375 -3448.2822265625 1 1436.264404296875 -3511.71484375 1 1496.536376953125 -3010.630615234375 1 1926.730224609375 -3005.28466796875 1 1908.0863037109375 -3480.259765625 1 1991.9808349609375 -3480.259765625 1 2011.3785400390625 -3474.265625 1 2029.826904296875 -3361.820556640625 1 1889.4129638671875 -3390.876220703125 1 1946.4376220703125 -3140 1 2085 -3104 1 2157 -3187.72998046875 1 2181.381591796875 -3127.360107421875 1 1562.6005859375 -3220.028564453125 1 1574.188232421875 -3171.549072265625 1 1494.9215087890625 -3487.96435546875 1 1794.2044677734375 -3500 1 2185 -3438.734375 1 2126.12841796875 -3400 1 2200 -3128.343505859375 1 1892.9765625 -3122.99755859375 1 1874.3326416015625 -3245.74951171875 1 1720.0596923828125 -3221 1 1745 -3394.326416015625 1 1618.658203125 -3394.6650390625 1 1638.050537109375 -3324.649169921875 1 1690.811279296875 -3029.830078125 1 2130.216064453125 -3042.77197265625 1 2024.216552734375 -3375.18310546875 1 1957.83935546875 -3392.43017578125 1 1740.67431640625 -2847.934326171875 1 1850 -3066.229736328125 1 1666.7218017578125</float_array>
                    <technique_common>
                        <accessor count="169" source="#pointarray0" stride="3">
                            <param name="X" type="float"/>
                            <param name="Y" type="float"/>
                            <param name="Z" type="float"/>
                        </accessor>
                    </technique_common>
                </source>
                <source id="uvs0">
                    <float_array id="uvarray0" count="338">1.809814453125 -0.363525390625 1.60986328125 -0.0594482421875 2.013671875 0.013916015625 1.6522216796875 0.088623046875 1.6468505859375 0.2425537109375 1.4014892578125 0.19482421875 1.59423828125 0.38720703125 1.37548828125 0.2659912109375 1.4993896484375 0.508544921875 1.328857421875 0.32568359375 1.3717041015625 0.5947265625 1.26611328125 0.3680419921875 1.2237548828125 0.6370849609375 1.1932373046875 0.388916015625 1.1175537109375 0.3863525390625 1.1636962890625 0.1485595703125 1.04638671875 0.3603515625 0.986572265625 0.313720703125 0.9251708984375 0.5791015625 0.8037109375 0.4842529296875 0.6763916015625 0.6209716796875 0.7176513671875 0.3565673828125 0.4285888671875 0.287353515625 0.6751708984375 0.2086181640625 0.6805419921875 0.0546875 0.926025390625 0.1024169921875 0.7332763671875 -0.0899658203125 0.951904296875 0.03125 0.8280029296875 -0.2113037109375 0.99853515625 -0.0284423828125 0.9556884765625 -0.2974853515625 1.0614013671875 -0.07080078125 1.103759765625 -0.3399658203125 1.13427734375 -0.091796875 1.2099609375 -0.089111328125 1.2811279296875 -0.063232421875 1.3408203125 -0.0164794921875 1.40234375 -0.2818603515625 1.523681640625 -0.18701171875 1.5614013671875 -0.591552734375 0.4129638671875 0.592041015625 0.1356201171875 0.443603515625 0.19140625 0.72021484375 0.037353515625 0.722900390625 0.080810546875 0.9691162109375 0.0091552734375 0.9937744140625 0.1229248046875 1.20751953125 -0.0511474609375 1.039306640625 -0.0946044921875 1.101318359375 -0.2310791015625 0.86572265625 -0.3193359375 0.9918212890625 -0.75732421875 0.857666015625 -0.3643798828125 1.1390380859375 -0.74951171875 1.3106689453125 -0.3616943359375 1.29296875 -0.3116455078125 1.4385986328125 -0.0908203125 1.3211669921875 -0.2188720703125 1.5615234375 -0.0452880859375 1.3817138671875 -0.0927734375 1.64990234375 0.0167236328125 1.4251708984375 0.0543212890625 1.6949462890625 0.089111328125 1.447265625 0.2083740234375 1.6922607421875 0.1649169921875 1.4459228515625 0.236572265625 1.4212646484375 0.2969970703125 1.375732421875 -0.9775390625 -0.513427734375 -0.6505126953125 -0.469970703125 -0.8017578125 -0.786865234375 -0.5599365234375 -0.594482421875 -0.4354248046875 -0.68505859375 -0.3831787109375 -0.417724609375 -0.3218994140625 -0.4622802734375 -0.2110595703125 -0.247314453125 -0.2498779296875 -0.4857177734375 -0.174072265625 -0.4857177734375 -0.135009765625 -0.732666015625 -0.10205078125 -0.4622802734375 0.0113525390625 -0.68505859375 -0.040771484375 -0.417724609375 0.135986328125 -0.594482421875 0.003662109375 -0.3564453125 0.2264404296875 -0.469970703125 0.027099609375 -0.284423828125 0.2740478515625 -0.323486328125 0.027099609375 -0.2086181640625 0.2740478515625 -0.1695556640625 0.003662109375 -0.1365966796875 0.2264404296875 -0.0230712890625 0.135986328125 0.1015625 0.3309326171875 -0.005615234375 0.9620361328125 0.826171875 0.7215576171875 0.931884765625 1.0274658203125 1.2109375 0.6075439453125 1.1220703125 0.6102294921875 1.2760009765625 0.361328125 1.1654052734375 0.3626708984375 1.2412109375 0.3404541015625 1.3135986328125 0.4769287109375 1.5494384765625 0.3538818359375 1.64208984375 0.5220947265625 1.888916015625 0.270751953125 1.998291015625 -0.0257568359375 2.021240234375 -0.1868896484375 0.537841796875 -0.135009765625 0.2396240234375 -0.2889404296875 0.2396240234375 -0.174072265625 -0.00732421875 -0.2498779296875 -0.00732421875 -0.3218994140625 -0.03076171875 -0.3831787109375 -0.0751953125 -0.4354248046875 0.1920166015625 -0.5599365234375 0.1015625 -0.7994384765625 0.5224609375 -0.9564208984375 0.099609375 1.900390625 0.62939453125 1.6785888671875 0.853759765625 1.3465576171875 0.971435546875 1.06982421875 0.6317138671875 0.338623046875 0.7652587890625 0.22900390625 0.989990234375 0.2911376953125 1.0333251953125 0.336669921875 1.0938720703125 0.5574951171875 0.9765625 -0.6981201171875 -0.323486328125 -1.0186767578125 -0.185791015625 -0.6981201171875 -0.1695556640625 -0.6505126953125 -0.0230712890625 -0.427734375 -0.1365966796875 0.551025390625 -0.2674560546875 0.6824951171875 -0.435302734375 0.402587890625 -0.4627685546875 0.6434326171875 -0.689208984375 0.3504638671875 -0.650146484375 0.4285888671875 -0.982177734375 0.1942138671875 -1.0211181640625 -0.3262939453125 1.9620361328125 -0.5740966796875 1.7265625 1.3831787109375 0.0462646484375 1.404052734375 0.119140625 -0.451171875 -0.2086181640625 -0.451171875 -0.284423828125 -0.427734375 -0.3564453125 0.0113525390625 0.1920166015625 -0.10205078125 -0.03076171875 0.8778076171875 -0.572021484375 1.0184326171875 -0.853271484375 0.69140625 -0.948486328125 0.92724609375 1.468505859375 0.565185546875 1.4232177734375 0.754638671875 1.73291015625 -0.4813232421875 0.56396484375 -0.5283203125 -0.962646484375 -0.2889404296875 -0.732666015625 -0.1376953125 -1.021240234375 0.92333984375 0.1781005859375 0.9442138671875 0.2509765625 0.4647216796875 0.8536376953125 0.5614013671875 0.756103515625 -0.115478515625 1.24951171875 -0.1168212890625 1.173828125 0.1566162109375 0.9677734375 1.3082275390625 -0.74853515625 1.2576904296875 -0.3345947265625 -0.040771484375 -0.0751953125 -0.1080322265625 0.7730712890625 2.0186767578125 0.345947265625 1.166015625 1.061767578125</float_array>
                    <technique_common>
                        <accessor count="169" source="#uvarray0" stride="2">
                            <param name="S" type="float"/>
                            <param name="T" type="float"/>
                        </accessor>
                    </technique_common>
                </source>
                <vertices id="vertices0">
                    <input semantic="POSITION" source="#points0"/>
                </vertices>
                <polylist count="306" material="Material1">
                    <input offset="0" semantic="VERTEX" source="#vertices0"/>
                    <input offset="1" semantic="TEXCOORD" source="#uvs0" set="0"/>
                    <vcount>3 3 3 3 3 3 3 3 3 3 3 3 3 3 3 3 3 3 3 3 3 3 3 3 3 3 3 3 3 3 3 3 3 3 3 3 3 3 3 3 3 3 3 3 3 3 3 3 3 3 3 3 3 3 3 3 3 3 3 3 3 3 3 3 3 3 3 3 3 3 3 3 3 3 3 3 3 3 3 3 3 3 3 3 3 3 3 3 3 3 3 3 3 3 3 3 3 3 3 3 3 3 3 3 3 3 3 3 3 3 3 3 3 3 3 3 3 3 3 3 3 3 3 3 3 3 3 3 3 3 3 3 3 3 3 3 3 3 3 3 3 3 3 3 3 3 3 3 3 3 3 3 3 3 3 3 3 3 3 3 3 3 3 3 3 3 3 3 3 3 3 3 3 3 3 3 3 3 3 3 3 3 3 3 3 3 3 3 3 3 3 3 3 3 3 3 3 3 3 3 3 3 3 3 3 3 3 3 3 3 3 3 3 3 3 3 3 3 3 3 3 3 3 3 3 3 3 3 3 3 3 3 3 3 3 3 3 3 3 3 3 3 3 3 3 3 3 3 3 3 3 3 3 3 3 3 3 3 3 3 3 3 3 3 3 3 3 3 3 3 3 3 3 3 3 3 3 3 3 3 3 3 3 3 3 3 3 3 3 3 3 3 3 3 3 3 3 3 3 3 3 3 3 3 3 3</vcount>
                    <p>2 2 1 1 0 0 3 3 1 1 2 2 4 4 3 3 2 2 5 5 3 3 4 4 6 6 5 5 4 4 7 7 5 5 6 6 8 8 7 7 6 6 9 9 7 7 8 8 10 10 9 9 8 8 11 11 9 9 10 10 12 12 11 11 10 10 13 13 11 11 12 12 14 14 13 13 12 12 15 15 13 13 14 14 16 16 15 15 14 14 17 17 15 15 16 16 18 18 17 17 16 16 19 19 17 17 18 18 20 20 19 19 18 18 21 21 19 19 20 20 22 22 21 21 20 20 23 23 21 21 22 22 24 24 23 23 22 22 25 25 23 23 24 24 26 26 25 25 24 24 27 27 25 25 26 26 28 28 27 27 26 26 29 29 27 27 28 28 30 30 29 29 28 28 31 31 29 29 30 30 32 32 31 31 30 30 33 33 31 31 32 32 34 34 33 33 32 32 15 15 33 33 34 34 35 35 15 15 34 34 36 36 15 15 35 35 37 37 36 36 35 35 38 38 36 36 37 37 39 39 38 38 37 37 0 0 38 38 39 39 40 40 22 22 20 20 41 41 22 22 40 40 42 42 41 41 40 40 43 43 41 41 42 42 44 44 43 43 42 42 45 45 43 43 44 44 46 46 45 45 44 44 47 47 45 45 46 46 48 48 47 47 46 46 49 49 47 47 48 48 50 50 49 49 48 48 51 51 49 49 50 50 52 52 51 51 50 50 53 53 51 51 52 52 54 54 53 53 52 52 55 55 53 53 54 54 56 56 55 55 54 54 57 57 55 55 56 56 58 58 57 57 56 56 59 59 57 57 58 58 60 60 59 59 58 58 61 61 59 59 60 60 62 62 61 61 60 60 63 63 61 61 62 62 64 64 63 63 62 62 65 65 63 63 64 64 46 46 65 65 64 64 66 66 65 65 46 46 69 69 68 68 67 67 70 70 68 68 69 69 71 71 70 70 69 69 72 72 70 70 71 71 73 73 72 72 71 71 74 74 72 72 73 73 75 75 74 74 73 73 76 76 74 74 75 75 77 77 76 76 75 75 78 78 76 76 77 77 79 79 78 78 77 77 80 80 78 78 79 79 81 81 80 80 79 79 82 82 80 80 81 81 83 83 82 82 81 81 84 84 82 82 83 83 85 85 84 84 83 83 86 86 84 84 85 85 87 87 86 86 85 85 88 88 86 86 87 87 89 89 88 88 87 87 90 90 88 88 89 89 91 91 90 90 89 89 22 22 90 90 91 91 24 24 22 22 91 91 92 92 20 20 18 18 93 93 20 20 92 92 94 94 93 93 92 92 95 95 93 93 94 94 96 96 95 95 94 94 97 97 95 95 96 96 98 98 97 97 96 96 46 46 97 97 98 98 99 99 46 46 98 98 66 66 46 46 99 99 100 100 66 66 99 99 101 101 66 66 100 100 102 102 101 101 100 100 63 63 101 101 102 102 103 103 63 63 102 102 104 104 63 63 103 103 105 105 41 41 43 43 106 106 41 41 105 105 107 107 106 106 105 105 108 108 106 106 107 107 109 109 108 108 107 107 74 74 108 108 109 109 110 110 74 74 109 109 111 111 74 74 110 110 112 112 111 111 110 110 113 113 111 111 112 112 114 114 113 113 112 112 115 115 113 113 114 114 116 116 6 6 4 4 8 8 6 6 116 116 117 117 8 8 116 116 10 10 8 8 117 117 118 118 10 10 117 117 12 12 10 10 118 118 92 92 12 12 118 118 119 119 12 12 92 92 18 18 119 119 92 92 16 16 119 119 18 18 120 120 42 42 40 40 121 121 42 42 120 120 122 122 121 121 120 120 46 46 121 121 122 122 123 123 46 46 122 122 97 97 46 46 123 123 124 124 97 97 123 123 95 95 97 97 124 124 93 93 95 95 124 124 125 125 67 67 68 68 126 126 67 67 125 125 127 127 126 126 125 125 115 115 126 126 127 127 128 128 115 115 127 127 113 113 115 115 128 128 129 129 113 113 128 128 111 111 113 113 129 129 74 74 111 111 129 129 130 130 28 28 26 26 131 131 28 28 130 130 132 132 131 131 130 130 133 133 131 131 132 132 134 134 133 133 132 132 135 135 133 133 134 134 136 136 135 135 134 134 104 104 61 61 63 63 59 59 61 61 104 104 137 137 59 59 104 104 57 57 59 59 137 137 138 138 57 57 137 137 55 55 57 57 138 138 53 53 55 55 138 138 1 1 38 38 0 0 139 139 38 38 1 1 140 140 139 139 1 1 15 15 139 139 140 140 5 5 15 15 140 140 7 7 15 15 5 5 127 127 141 141 128 128 142 142 141 141 127 127 125 125 142 142 127 127 143 143 142 142 125 125 68 68 143 143 125 125 70 70 143 143 68 68 41 41 90 90 22 22 144 144 90 90 41 41 106 106 144 144 41 41 145 145 144 144 106 106 108 108 145 145 106 106 74 74 145 145 108 108 131 131 30 30 28 28 146 146 30 30 131 131 133 133 146 146 131 131 147 147 146 146 133 133 148 148 147 147 133 133 149 149 96 96 94 94 150 150 96 96 149 149 151 151 150 150 149 149 100 100 150 150 151 151 102 102 100 100 151 151 107 107 110 110 109 109 112 112 110 110 107 107 152 152 112 112 107 107 114 114 112 112 152 152 51 51 114 114 152 152 134 134 81 81 79 79 83 83 81 81 134 134 132 132 83 83 134 134 85 85 83 83 132 132 130 130 85 85 132 132 153 153 71 71 69 69 154 154 71 71 153 153 155 155 154 154 153 153 77 77 154 154 155 155 79 79 77 77 155 155 15 15 25 25 27 27 156 156 25 25 15 15 157 157 156 156 15 15 21 21 156 156 157 157 19 19 21 21 157 157 91 91 26 26 24 24 130 130 26 26 91 91 87 87 130 130 91 91 85 85 130 130 87 87 40 40 158 158 120 120 159 159 158 158 40 40 20 20 159 159 40 40 93 93 159 159 20 20 141 141 129 129 128 128 74 74 129 129 141 141 142 142 74 74 141 141 143 143 74 74 142 142 52 52 160 160 54 54 161 161 160 160 52 52 50 50 161 161 52 52 48 48 161 161 50 50 160 160 56 56 54 54 46 46 56 56 160 160 161 161 46 46 160 160 48 48 46 46 161 161 162 162 44 44 42 42 46 46 44 44 162 162 121 121 46 46 162 162 146 146 32 32 30 30 163 163 32 32 146 146 147 147 163 163 146 146 154 154 73 73 71 71 75 75 73 73 154 154 77 77 75 75 154 154 164 164 32 32 163 163 34 34 32 32 164 164 35 35 34 34 164 164 165 165 90 90 144 144 88 88 90 90 165 165 74 74 88 88 165 165 158 158 122 122 120 120 123 123 122 122 158 158 124 124 123 123 158 158 166 166 49 49 105 105 47 47 49 49 166 166 45 45 47 47 166 166 152 152 49 49 51 51 105 105 49 49 152 152 107 107 105 105 152 152 15 15 31 31 33 33 29 29 31 31 15 15 27 27 29 29 15 15 150 150 98 98 96 96 99 99 98 98 150 150 100 100 99 99 150 150 167 167 4 4 2 2 116 116 4 4 167 167 168 168 92 92 118 118 94 94 92 92 168 168 72 72 143 143 70 70 74 74 143 143 72 72 36 36 139 139 15 15 38 38 139 139 36 36 17 17 157 157 15 15 19 19 157 157 17 17 145 145 165 165 144 144 74 74 165 165 145 145 9 9 15 15 7 7 11 11 15 15 9 9 39 39 164 164 163 163 37 37 164 164 39 39 119 119 14 14 12 12 16 16 14 14 119 119 86 86 74 74 84 84 88 88 74 74 86 86 82 82 74 74 80 80 84 84 74 74 82 82 78 78 74 74 76 76 80 80 74 74 78 78 23 23 156 156 21 21 25 25 156 156 23 23 140 140 3 3 5 5 1 1 3 3 140 140 136 136 79 79 155 155 134 134 79 79 136 136 101 101 65 65 66 66 63 63 65 65 101 101 62 62 46 46 64 64 60 60 46 46 62 62 58 58 46 46 60 60 56 56 46 46 58 58 43 43 166 166 105 105 45 45 166 166 43 43 159 159 124 124 158 158 93 93 124 124 159 159 91 91 89 89 87 87 13 13 15 15 11 11 164 164 37 37 35 35 135 135 148 148 133 133 42 42 121 121 162 162</p>
                </polylist>
            </mesh>
        </geometry>
        <geometry id="mesh0_VC">
            <mesh>
                <source id="points0_VC">
                    <float_array id="pointarray0_VC" count="507">-2901.40673828125 1 2031.6387939453125 -2952.619140625 1 1953.7813720703125 -2849.24169921875 1 1935 -2941.75341796875 1 1915.886962890625 -2943.12890625 1 1876.489501953125 -3005.96142578125 1 1888.702880859375 -2956.612060546875 1 1839.445556640625 -3012.594970703125 1 1870.477294921875 -2980.88232421875 1 1808.380859375 -3024.535888671875 1 1855.1937255859375 -3013.564208984375 1 1786.3367919921875 -3040.615478515625 1 1844.3480224609375 -3051.458740234375 1 1775.470703125 -3059.25927734375 1 1839.001953125 -3078.642822265625 1 1839.6788330078125 -3066.81396484375 1 1900.531494140625 -3096.868408203125 1 1846.3125 -3112.15185546875 1 1858.2532958984375 -3127.900146484375 1 1790.329345703125 -3158.96484375 1 1814.5997314453125 -3191.5615234375 1 1779.6217041015625 -3181.009033203125 1 1847.2816162109375 -3255 1 1865 -3191.874755859375 1 1885.176025390625 -3190.499267578125 1 1924.5733642578125 -3127.666748046875 1 1912.3599853515625 -3177.016357421875 1 1961.6175537109375 -3121.033203125 1 1930.585693359375 -3152.745849609375 1 1992.68212890625 -3109.09228515625 1 1945.869384765625 -3120.06396484375 1 2014.726318359375 -3093.012939453125 1 1956.7149658203125 -3082.169677734375 1 2025.59228515625 -3074.369140625 1 1962.06103515625 -3054.985595703125 1 1961.3841552734375 -3036.760009765625 1 1954.7506103515625 -3021.476318359375 1 1942.8096923828125 -3005.72802734375 1 2010.733642578125 -2974.66357421875 1 1986.4632568359375 -2965 1 2090 -3259 1 1787 -3330 1 1825 -3315.740966796875 1 1754.1966552734375 -3355.15625 1 1753.5086669921875 -3344.04150390625 1 1690.47265625 -3362.3798828125 1 1684.1583251953125 -3333.276611328125 1 1629.4229736328125 -3377.86962890625 1 1672.48583984375 -3388.994140625 1 1656.5982666015625 -3423.91357421875 1 1716.949951171875 -3446.524658203125 1 1684.6575927734375 -3558.6337890625 0.9999449849128723 1719 -3458.050537109375 1 1646.958740234375 -3556.632080078125 1 1603 -3457.362548828125 1 1607.543212890625 -3444.52783203125 1 1570.26953125 -3388.011962890625 1 1600.319580078125 -3420.8037109375 1 1538.7861328125 -3376.339599609375 1 1584.8299560546875 -3388.51123046875 1 1516.1749267578125 -3360.451904296875 1 1573.7052001953125 -3350.812255859375 1 1504.649169921875 -3341.904296875 1 1568.03466796875 -3311.39697265625 1 1505.337158203125 -3322.51171875 1 1568.3731689453125 -3304.17333984375 1 1574.6875 -3288.68359375 1 1586.3599853515625 -3615 1 2070 -3531.290283203125 1 2058.882568359375 -3570 1 2140 -3508.118896484375 1 2090.775146484375 -3476.226318359375 1 2113.946533203125 -3462.864013671875 1 2045.52001953125 -3447.1708984375 1 2056.921630859375 -3418.77685546875 1 2001.87890625 -3428.72216796875 1 2062.916015625 -3409.32421875 1 2062.916015625 -3399.312744140625 1 2126.12841796875 -3390.8759765625 1 2056.921630859375 -3361.820556640625 1 2113.946533203125 -3375.18310546875 1 2045.52001953125 -3329.92822265625 1 2090.775146484375 -3363.78125 1 2029.826904296875 -3306.7568359375 1 2058.882568359375 -3357.787109375 1 2011.3785400390625 -3294.57470703125 1 2021.390625 -3357.787109375 1 1991.9808349609375 -3294.57470703125 1 1981.968994140625 -3363.78125 1 1973.532470703125 -3306.7568359375 1 1944.4769287109375 -3329.92822265625 1 1912.584228515625 -3280 1 1940 -3118.440673828125 1 1727.086669921875 -3180 1 1700 -3101.6982421875 1 1628.5364990234375 -3209.190673828125 1 1651.302490234375 -3208.502685546875 1 1611.8870849609375 -3272.226806640625 1 1640.1876220703125 -3271.888427734375 1 1620.79541015625 -3277.55908203125 1 1602.24755859375 -3242.6396484375 1 1541.89599609375 -3274.123046875 1 1518.1715087890625 -3231.06201171875 1 1454.97314453125 -3295.4111328125 1 1426.96923828125 -3371.34375 1 1421.1197509765625 -3412.591064453125 1 1800.888671875 -3399.312744140625 1 1877.23095703125 -3438.734375 1 1877.23095703125 -3409.32421875 1 1940.4434814453125 -3428.72216796875 1 1940.443603515625 -3447.1708984375 1 1946.4376220703125 -3462.86376953125 1 1957.83935546875 -3476.226318359375 1 1889.4129638671875 -3508.118896484375 1 1912.584228515625 -3569.413818359375 1 1804.822509765625 -3609.611083984375 1 1913.0634765625 -2878.220947265625 1 1777.44384765625 -2935 1 1720 -3020 1 1689.8873291015625 -3090.856201171875 1 1776.8465576171875 -3278.0419921875 1 1742.6710205078125 -3306.101318359375 1 1685.140625 -3290.213623046875 1 1674.015869140625 -3278.541259765625 1 1658.526123046875 -3222.025146484375 1 1688.5762939453125 -3543.47216796875 1 2021.390625 -3625.556396484375 1 1986.13330078125 -3543.47216796875 1 1981.968994140625 -3531.290283203125 1 1944.4769287109375 -3474.265625 1 1973.532470703125 -3223.66015625 1 2007.0362548828125 -3190 1 2050 -3261.664794921875 1 2057.055419921875 -3200 1 2115 -3275 1 2105 -3255 1 2190 -3315 1 2199.976318359375 -3448.2822265625 1 1436.264404296875 -3511.71484375 1 1496.536376953125 -3010.630615234375 1 1926.730224609375 -3005.28466796875 1 1908.0863037109375 -3480.259765625 1 1991.9808349609375 -3480.259765625 1 2011.3785400390625 -3474.265625 1 2029.826904296875 -3361.820556640625 1 1889.4129638671875 -3390.876220703125 1 1946.4376220703125 -3140 1 2085 -3104 1 2157 -3187.72998046875 1 2181.381591796875 -3127.360107421875 1 1562.6005859375 -3220.028564453125 1 1574.188232421875 -3171.549072265625 1 1494.9215087890625 -3487.96435546875 1 1794.2044677734375 -3500 1 2185 -3438.734375 1 2126.12841796875 -3400 1 2200 -3128.343505859375 1 1892.9765625 -3122.99755859375 1 1874.3326416015625 -3245.74951171875 1 1720.0596923828125 -3221 1 1745 -3394.326416015625 1 1618.658203125 -3394.6650390625 1 1638.050537109375 -3324.649169921875 1 1690.811279296875 -3029.830078125 1 2130.216064453125 -3042.77197265625 1 2024.216552734375 -3375.18310546875 1 1957.83935546875 -3392.43017578125 1 1740.67431640625 -2847.934326171875 1 1850 -3066.229736328125 1 1666.7218017578125</float_array>
                    <technique_common>
                        <accessor count="169" source="#pointarray0_VC" stride="3">
                            <param name="X" type="float"/>
                            <param name="Y" type="float"/>
                            <param name="Z" type="float"/>
                        </accessor>
                    </technique_common>
                </source>
                <source id="uvs0_VC">
                    <float_array id="uvarray0_VC" count="1836">0.5771484375 0.751953125 0.5712890625 0.998046875 0.5712890625 0.751953125 0.5791015625 0.751953125 0.5849609375 0.751953125 0.5791015625 0.998046875 0.5869140625 0.751953125 0.5927734375 0.751953125 0.5869140625 0.998046875 0.1630859375 0.376953125 0.1572265625 0.376953125 0.1572265625 0.498046875 0.3369140625 0.373046875 0.3369140625 0.345703125 0.3427734375 0.345703125 0.3447265625 0.345703125 0.3447265625 0.373046875 0.3505859375 0.345703125 0.1650390625 0.376953125 0.1708984375 0.376953125 0.1650390625 0.498046875 0.1728515625 0.376953125 0.1728515625 0.498046875 0.1787109375 0.376953125 0.1806640625 0.376953125 0.1865234375 0.376953125 0.1806640625 0.498046875 0.1884765625 0.376953125 0.1884765625 0.498046875 0.1943359375 0.376953125 0.5947265625 0.998046875 0.5947265625 0.751953125 0.6005859375 0.751953125 0.6083984375 0.751953125 0.6025390625 0.751953125 0.6025390625 0.998046875 0.6162109375 0.751953125 0.6103515625 0.751953125 0.6103515625 0.998046875 0.3525390625 0.373046875 0.3583984375 0.345703125 0.3525390625 0.345703125 0.3603515625 0.345703125 0.3603515625 0.373046875 0.3662109375 0.345703125 0.3681640625 0.345703125 0.3681640625 0.373046875 0.3740234375 0.345703125 0.6181640625 0.998046875 0.6240234375 0.751953125 0.6181640625 0.751953125 0.6259765625 0.751953125 0.6259765625 0.998046875 0.6396484375 0.751953125 0.2041015625 0.498046875 0.2177734375 0.376953125 0.2041015625 0.376953125 0.3193359375 0.439453125 0.3134765625 0.439453125 0.3134765625 0.498046875 0.3271484375 0.439453125 0.3212890625 0.498046875 0.3212890625 0.439453125 0.3291015625 0.439453125 0.3349609375 0.439453125 0.3291015625 0.498046875 0.3369140625 0.439453125 0.3427734375 0.439453125 0.3369140625 0.498046875 0.1962890625 0.498046875 0.1962890625 0.376953125 0.2021484375 0.376953125 0.2255859375 0.376953125 0.2197265625 0.376953125 0.2197265625 0.498046875 0.2275390625 0.376953125 0.2275390625 0.498046875 0.2333984375 0.376953125 0.2353515625 0.376953125 0.2412109375 0.376953125 0.2353515625 0.498046875 0.2431640625 0.376953125 0.2431640625 0.498046875 0.2490234375 0.376953125 0.1572265625 0.373046875 0.1630859375 0.251953125 0.1572265625 0.251953125 0.1650390625 0.251953125 0.1650390625 0.373046875 0.1708984375 0.251953125 0.1728515625 0.251953125 0.1787109375 0.251953125 0.1728515625 0.373046875 0.1806640625 0.373046875 0.1865234375 0.251953125 0.1806640625 0.251953125 0.3759765625 0.373046875 0.3818359375 0.345703125 0.3759765625 0.345703125 0.3447265625 0.498046875 0.3447265625 0.439453125 0.3505859375 0.439453125 0.3583984375 0.439453125 0.3525390625 0.498046875 0.3525390625 0.439453125 0.3662109375 0.439453125 0.3603515625 0.498046875 0.3603515625 0.439453125 0.1943359375 0.251953125 0.1884765625 0.251953125 0.1884765625 0.373046875 0.1962890625 0.251953125 0.2021484375 0.251953125 0.1962890625 0.373046875 0.6416015625 0.998046875 0.6416015625 0.751953125 0.6474609375 0.751953125 0.6552734375 0.751953125 0.6494140625 0.998046875 0.6494140625 0.751953125 0.2041015625 0.251953125 0.2099609375 0.251953125 0.2041015625 0.373046875 0.2119140625 0.251953125 0.2119140625 0.373046875 0.2177734375 0.251953125 0.6572265625 0.998046875 0.6630859375 0.751953125 0.6572265625 0.751953125 0.6708984375 0.751953125 0.6650390625 0.998046875 0.6650390625 0.751953125 0.2197265625 0.373046875 0.2255859375 0.251953125 0.2197265625 0.251953125 0.3740234375 0.439453125 0.3681640625 0.498046875 0.3681640625 0.439453125 0.3837890625 0.345703125 0.3837890625 0.373046875 0.3896484375 0.345703125 0.3916015625 0.345703125 0.3974609375 0.345703125 0.3916015625 0.373046875 0.3994140625 0.345703125 0.4052734375 0.345703125 0.3994140625 0.373046875 0.3759765625 0.498046875 0.3759765625 0.439453125 0.3818359375 0.439453125 0.3896484375 0.439453125 0.3837890625 0.439453125 0.3837890625 0.498046875 0.6728515625 0.998046875 0.6728515625 0.751953125 0.6787109375 0.751953125 0.6806640625 0.751953125 0.6806640625 0.998046875 0.6865234375 0.751953125 0.6943359375 0.751953125 0.6884765625 0.751953125 0.6884765625 0.998046875 0.7041015625 0.751953125 0.7041015625 0.998046875 0.7177734375 0.751953125 0.7333984375 0.751953125 0.7197265625 0.998046875 0.7197265625 0.751953125 0.2353515625 0.373046875 0.2490234375 0.251953125 0.2353515625 0.251953125 0.3974609375 0.439453125 0.3916015625 0.439453125 0.3916015625 0.498046875 0.4208984375 0.439453125 0.4072265625 0.498046875 0.4072265625 0.439453125 0.4052734375 0.439453125 0.3994140625 0.439453125 0.3994140625 0.498046875 0.4130859375 0.345703125 0.4072265625 0.373046875 0.4072265625 0.345703125 0.4208984375 0.345703125 0.4150390625 0.345703125 0.4150390625 0.373046875 0.4287109375 0.345703125 0.4228515625 0.373046875 0.4228515625 0.345703125 0.4365234375 0.345703125 0.4306640625 0.345703125 0.4306640625 0.373046875 0.2333984375 0.251953125 0.2275390625 0.373046875 0.2275390625 0.251953125 0.0068359375 0.126953125 0.0009765625 0.126953125 0.0009765625 0.248046875 0.4228515625 0.498046875 0.4228515625 0.439453125 0.4287109375 0.439453125 0.4365234375 0.439453125 0.4306640625 0.439453125 0.4306640625 0.498046875 0.7021484375 0.751953125 0.6962890625 0.998046875 0.6962890625 0.751953125 0.7412109375 0.751953125 0.7353515625 0.751953125 0.7353515625 0.998046875 0.7490234375 0.751953125 0.7431640625 0.751953125 0.7431640625 0.998046875 0.0009765625 0.998046875 0.0009765625 0.501953125 0.0068359375 0.501953125 0.0087890625 0.501953125 0.0146484375 0.501953125 0.0087890625 0.998046875 0.4384765625 0.373046875 0.4384765625 0.345703125 0.4443359375 0.345703125 0.4521484375 0.345703125 0.4462890625 0.345703125 0.4462890625 0.373046875 0.0146484375 0.126953125 0.0087890625 0.248046875 0.0087890625 0.126953125 0.0166015625 0.998046875 0.0166015625 0.501953125 0.0224609375 0.501953125 0.0302734375 0.501953125 0.0244140625 0.501953125 0.0244140625 0.998046875 0.1240234375 0.501953125 0.0634765625 0.501953125 0.0634765625 0.998046875 0.0224609375 0.126953125 0.0166015625 0.126953125 0.0166015625 0.248046875 0.0458984375 0.126953125 0.0322265625 0.248046875 0.0322265625 0.126953125 0.0302734375 0.126953125 0.0244140625 0.126953125 0.0244140625 0.248046875 0.0478515625 0.126953125 0.0478515625 0.248046875 0.0537109375 0.126953125 0.0615234375 0.126953125 0.0556640625 0.126953125 0.0556640625 0.248046875 0.0634765625 0.126953125 0.0634765625 0.248046875 0.0693359375 0.126953125 0.0927734375 0.126953125 0.0791015625 0.126953125 0.0791015625 0.248046875 0.0771484375 0.126953125 0.0712890625 0.248046875 0.0712890625 0.126953125 0.1005859375 0.126953125 0.0947265625 0.126953125 0.0947265625 0.248046875 0.1083984375 0.126953125 0.1025390625 0.248046875 0.1025390625 0.126953125 0.1103515625 0.126953125 0.1103515625 0.248046875 0.1240234375 0.126953125 0.4541015625 0.345703125 0.4541015625 0.373046875 0.4599609375 0.345703125 0.1259765625 0.248046875 0.1259765625 0.126953125 0.1396484375 0.126953125 0.4384765625 0.439453125 0.4384765625 0.498046875 0.4521484375 0.439453125 0.1474609375 0.126953125 0.1416015625 0.248046875 0.1416015625 0.126953125 0.1494140625 0.126953125 0.1552734375 0.126953125 0.1494140625 0.248046875 0.1259765625 0.998046875 0.1259765625 0.501953125 0.1865234375 0.501953125 0.0380859375 0.501953125 0.0322265625 0.501953125 0.0322265625 0.998046875 0.3740234375 0.501953125 0.2509765625 0.501953125 0.2509765625 0.998046875 0.6240234375 0.501953125 0.5947265625 0.748046875 0.5947265625 0.501953125 0.4677734375 0.439453125 0.4541015625 0.439453125 0.4541015625 0.498046875 0.4697265625 0.498046875 0.4833984375 0.439453125 0.4697265625 0.439453125 0.4853515625 0.439453125 0.4853515625 0.498046875 0.4912109375 0.439453125 0.4931640625 0.439453125 0.4931640625 0.498046875 0.4990234375 0.439453125 0.1572265625 0.248046875 0.1630859375 0.126953125 0.1572265625 0.126953125 0.1708984375 0.126953125 0.1650390625 0.248046875 0.1650390625 0.126953125 0.5712890625 0.748046875 0.5712890625 0.501953125 0.5771484375 0.501953125 0.5791015625 0.501953125 0.5849609375 0.501953125 0.5791015625 0.748046875 0.5869140625 0.501953125 0.5869140625 0.748046875 0.5927734375 0.501953125 0.6318359375 0.501953125 0.6259765625 0.748046875 0.6259765625 0.501953125 0.6396484375 0.501953125 0.6337890625 0.501953125 0.6337890625 0.748046875 0.6416015625 0.748046875 0.6416015625 0.501953125 0.6474609375 0.501953125 0.6552734375 0.501953125 0.6494140625 0.501953125 0.6494140625 0.748046875 0.0400390625 0.998046875 0.0400390625 0.501953125 0.0458984375 0.501953125 0.0478515625 0.501953125 0.0537109375 0.501953125 0.0478515625 0.998046875 0.3134765625 0.435546875 0.3134765625 0.376953125 0.3193359375 0.376953125 0.3271484375 0.376953125 0.3212890625 0.435546875 0.3212890625 0.376953125 0.4677734375 0.345703125 0.4619140625 0.373046875 0.4619140625 0.345703125 0.0556640625 0.998046875 0.0556640625 0.501953125 0.0615234375 0.501953125 0.1943359375 0.501953125 0.1884765625 0.998046875 0.1884765625 0.501953125 0.6572265625 0.748046875 0.6630859375 0.501953125 0.6572265625 0.501953125 0.6708984375 0.501953125 0.6650390625 0.748046875 0.6650390625 0.501953125 0.6728515625 0.748046875 0.6728515625 0.501953125 0.6865234375 0.501953125 0.6884765625 0.501953125 0.6943359375 0.501953125 0.6884765625 0.748046875 0.7021484375 0.501953125 0.6962890625 0.748046875 0.6962890625 0.501953125 0.7041015625 0.501953125 0.7099609375 0.501953125 0.7041015625 0.748046875 0.2197265625 0.501953125 0.2490234375 0.501953125 0.2197265625 0.998046875 0.7197265625 0.748046875 0.7490234375 0.501953125 0.7197265625 0.501953125 0.7177734375 0.501953125 0.7119140625 0.501953125 0.7119140625 0.748046875 0.1728515625 0.126953125 0.1787109375 0.126953125 0.1728515625 0.248046875 0.1806640625 0.126953125 0.1806640625 0.248046875 0.1865234375 0.126953125 0.7509765625 0.998046875 0.7509765625 0.751953125 0.7568359375 0.751953125 0.7646484375 0.751953125 0.7587890625 0.751953125 0.7587890625 0.998046875 0.1884765625 0.248046875 0.1884765625 0.126953125 0.1943359375 0.126953125 0.2021484375 0.126953125 0.1962890625 0.126953125 0.1962890625 0.248046875 0.4697265625 0.373046875 0.4755859375 0.345703125 0.4697265625 0.345703125 0.4775390625 0.345703125 0.4775390625 0.373046875 0.4833984375 0.345703125 0.4853515625 0.345703125 0.4853515625 0.373046875 0.4912109375 0.345703125 0.3291015625 0.435546875 0.3349609375 0.376953125 0.3291015625 0.376953125 0.7822265625 0.998046875 0.8115234375 0.751953125 0.7822265625 0.751953125 0.7666015625 0.751953125 0.7724609375 0.751953125 0.7666015625 0.998046875 0.7744140625 0.751953125 0.7744140625 0.998046875 0.7802734375 0.751953125 0.8193359375 0.751953125 0.8134765625 0.751953125 0.8134765625 0.998046875 0.8212890625 0.751953125 0.8212890625 0.998046875 0.8271484375 0.751953125 0.8291015625 0.751953125 0.8349609375 0.751953125 0.8291015625 0.998046875 0.8369140625 0.751953125 0.8369140625 0.998046875 0.8427734375 0.751953125 0.8447265625 0.751953125 0.8447265625 0.998046875 0.8505859375 0.751953125 0.1962890625 0.998046875 0.1962890625 0.501953125 0.2021484375 0.501953125 0.2177734375 0.501953125 0.2041015625 0.998046875 0.2041015625 0.501953125 0.4931640625 0.345703125 0.4931640625 0.373046875 0.4990234375 0.345703125 0.2041015625 0.248046875 0.2099609375 0.126953125 0.2041015625 0.126953125 0.2177734375 0.126953125 0.2119140625 0.248046875 0.2119140625 0.126953125 0.2255859375 0.126953125 0.2197265625 0.126953125 0.2197265625 0.248046875 0.3369140625 0.435546875 0.3369140625 0.376953125 0.3427734375 0.376953125 0.3427734375 0.314453125 0.3369140625 0.314453125 0.3369140625 0.341796875 0.2275390625 0.126953125 0.2333984375 0.126953125 0.2275390625 0.248046875 0.2412109375 0.126953125 0.2353515625 0.126953125 0.2353515625 0.248046875 0.8525390625 0.998046875 0.8583984375 0.751953125 0.8525390625 0.751953125 0.8662109375 0.751953125 0.8603515625 0.751953125 0.8603515625 0.998046875 0.8740234375 0.751953125 0.8681640625 0.998046875 0.8681640625 0.751953125 0.2490234375 0.126953125 0.2431640625 0.126953125 0.2431640625 0.248046875 0.0068359375 0.001953125 0.0009765625 0.123046875 0.0009765625 0.001953125 0.0146484375 0.001953125 0.0087890625 0.001953125 0.0087890625 0.123046875 0.8759765625 0.998046875 0.9365234375 0.751953125 0.8759765625 0.751953125 0.9384765625 0.751953125 0.9443359375 0.751953125 0.9384765625 0.998046875 0.0224609375 0.001953125 0.0166015625 0.001953125 0.0166015625 0.123046875 0.0244140625 0.001953125 0.0244140625 0.123046875 0.0302734375 0.001953125 0.3447265625 0.435546875 0.3447265625 0.376953125 0.3505859375 0.376953125 0.3583984375 0.376953125 0.3525390625 0.435546875 0.3525390625 0.376953125 0.3505859375 0.314453125 0.3447265625 0.314453125 0.3447265625 0.341796875 0.3818359375 0.501953125 0.3759765625 0.998046875 0.3759765625 0.501953125 0.3896484375 0.501953125 0.3837890625 0.501953125 0.3837890625 0.998046875 0.3974609375 0.501953125 0.3916015625 0.998046875 0.3916015625 0.501953125 0.4208984375 0.501953125 0.4072265625 0.501953125 0.4072265625 0.998046875 0.4052734375 0.501953125 0.3994140625 0.998046875 0.3994140625 0.501953125 0.4287109375 0.501953125 0.4228515625 0.998046875 0.4228515625 0.501953125 0.0380859375 0.001953125 0.0322265625 0.123046875 0.0322265625 0.001953125 0.7509765625 0.748046875 0.8115234375 0.501953125 0.7509765625 0.501953125 0.9462890625 0.751953125 0.9521484375 0.751953125 0.9462890625 0.998046875 0.4306640625 0.998046875 0.4365234375 0.501953125 0.4306640625 0.501953125 0.4384765625 0.501953125 0.4443359375 0.501953125 0.4384765625 0.998046875 0.3603515625 0.435546875 0.3603515625 0.376953125 0.3662109375 0.376953125 0.0400390625 0.123046875 0.0458984375 0.001953125 0.0400390625 0.001953125 0.9541015625 0.751953125 0.9541015625 0.998046875 0.9677734375 0.751953125 0.3681640625 0.376953125 0.3740234375 0.376953125 0.3681640625 0.435546875 0.3759765625 0.435546875 0.3759765625 0.376953125 0.3818359375 0.376953125 0.3896484375 0.376953125 0.3837890625 0.435546875 0.3837890625 0.376953125 0.9697265625 0.751953125 0.9697265625 0.998046875 0.9755859375 0.751953125 0.9775390625 0.751953125 0.9833984375 0.751953125 0.9775390625 0.998046875 0.9912109375 0.751953125 0.9853515625 0.998046875 0.9853515625 0.751953125 0.9931640625 0.751953125 0.9990234375 0.751953125 0.9931640625 0.998046875 0.8193359375 0.501953125 0.8134765625 0.748046875 0.8134765625 0.501953125 0.4462890625 0.998046875 0.4462890625 0.501953125 0.4521484375 0.501953125 0.4599609375 0.501953125 0.4541015625 0.998046875 0.4541015625 0.501953125 0.8212890625 0.748046875 0.8271484375 0.501953125 0.8212890625 0.501953125 0.8291015625 0.501953125 0.8291015625 0.748046875 0.8349609375 0.501953125 0.0478515625 0.001953125 0.0537109375 0.001953125 0.0478515625 0.123046875 0.3583984375 0.314453125 0.3525390625 0.314453125 0.3525390625 0.341796875 0.0556640625 0.001953125 0.0556640625 0.123046875 0.0615234375 0.001953125 0.3603515625 0.341796875 0.3662109375 0.314453125 0.3603515625 0.314453125 0.3740234375 0.314453125 0.3681640625 0.314453125 0.3681640625 0.341796875 0.0693359375 0.001953125 0.0634765625 0.001953125 0.0634765625 0.123046875 0.8369140625 0.501953125 0.8369140625 0.748046875 0.8427734375 0.501953125 0.8505859375 0.501953125 0.8447265625 0.501953125 0.8447265625 0.748046875 0.8583984375 0.501953125 0.8525390625 0.748046875 0.8525390625 0.501953125 0.8662109375 0.501953125 0.8603515625 0.501953125 0.8603515625 0.748046875 0.9052734375 0.501953125 0.8759765625 0.748046875 0.8759765625 0.501953125 0.3916015625 0.435546875 0.3974609375 0.376953125 0.3916015625 0.376953125 0.4208984375 0.376953125 0.4072265625 0.435546875 0.4072265625 0.376953125 0.3818359375 0.314453125 0.3759765625 0.314453125 0.3759765625 0.341796875 0.8681640625 0.748046875 0.8740234375 0.501953125 0.8681640625 0.501953125 0.9130859375 0.501953125 0.9072265625 0.501953125 0.9072265625 0.748046875 0.9228515625 0.501953125 0.9228515625 0.748046875 0.9365234375 0.501953125 0.9208984375 0.501953125 0.9150390625 0.748046875 0.9150390625 0.501953125 0.0771484375 0.001953125 0.0712890625 0.001953125 0.0712890625 0.123046875 0.0849609375 0.001953125 0.0791015625 0.001953125 0.0791015625 0.123046875 0.9384765625 0.748046875 0.9443359375 0.501953125 0.9384765625 0.501953125 0.9462890625 0.501953125 0.9462890625 0.748046875 0.9521484375 0.501953125 0.0927734375 0.001953125 0.0869140625 0.001953125 0.0869140625 0.123046875 0.0947265625 0.123046875 0.1005859375 0.001953125 0.0947265625 0.001953125 0.4619140625 0.501953125 0.4677734375 0.501953125 0.4619140625 0.998046875 0.1025390625 0.001953125 0.1025390625 0.123046875 0.1083984375 0.001953125 0.1103515625 0.001953125 0.1103515625 0.123046875 0.1162109375 0.001953125 0.3837890625 0.341796875 0.3837890625 0.314453125 0.3896484375 0.314453125 0.1396484375 0.001953125 0.1259765625 0.123046875 0.1259765625 0.001953125 0.4052734375 0.376953125 0.3994140625 0.376953125 0.3994140625 0.435546875 0.4287109375 0.376953125 0.4228515625 0.435546875 0.4228515625 0.376953125 0.4521484375 0.376953125 0.4384765625 0.376953125 0.4384765625 0.435546875 0.1181640625 0.001953125 0.1240234375 0.001953125 0.1181640625 0.123046875 0.1416015625 0.001953125 0.1416015625 0.123046875 0.1474609375 0.001953125 0.1494140625 0.001953125 0.1494140625 0.123046875 0.1552734375 0.001953125 0.3916015625 0.341796875 0.3916015625 0.314453125 0.3974609375 0.314453125 0.1572265625 0.001953125 0.1630859375 0.001953125 0.1572265625 0.123046875 0.1650390625 0.123046875 0.1650390625 0.001953125 0.1708984375 0.001953125 0.1728515625 0.001953125 0.1728515625 0.123046875 0.1787109375 0.001953125 0.9541015625 0.748046875 0.9599609375 0.501953125 0.9541015625 0.501953125 0.9697265625 0.501953125 0.9697265625 0.748046875 0.9990234375 0.501953125 0.4365234375 0.376953125 0.4306640625 0.376953125 0.4306640625 0.435546875 0.4755859375 0.501953125 0.4697265625 0.998046875 0.4697265625 0.501953125 0.4775390625 0.501953125 0.4833984375 0.501953125 0.4775390625 0.998046875 0.4912109375 0.501953125 0.4853515625 0.998046875 0.4853515625 0.501953125 0.0009765625 0.251953125 0.0146484375 0.251953125 0.0009765625 0.498046875 0.4052734375 0.314453125 0.3994140625 0.341796875 0.3994140625 0.314453125 0.1806640625 0.001953125 0.1806640625 0.123046875 0.1865234375 0.001953125 0.5009765625 0.501953125 0.5615234375 0.501953125 0.5009765625 0.998046875 0.1884765625 0.001953125 0.1884765625 0.123046875 0.1943359375 0.001953125 0.4541015625 0.435546875 0.4599609375 0.376953125 0.4541015625 0.376953125 0.4677734375 0.376953125 0.4619140625 0.435546875 0.4619140625 0.376953125 0.4755859375 0.376953125 0.4697265625 0.376953125 0.4697265625 0.435546875 0.4833984375 0.376953125 0.4775390625 0.435546875 0.4775390625 0.376953125 0.9619140625 0.501953125 0.9677734375 0.501953125 0.9619140625 0.748046875 0.4853515625 0.435546875 0.4912109375 0.376953125 0.4853515625 0.376953125 0.4931640625 0.376953125 0.4990234375 0.376953125 0.4931640625 0.435546875 0.0224609375 0.251953125 0.0166015625 0.498046875 0.0166015625 0.251953125 0.0244140625 0.251953125 0.0244140625 0.498046875 0.0302734375 0.251953125 0.0322265625 0.498046875 0.0322265625 0.251953125 0.0380859375 0.251953125 0.1962890625 0.123046875 0.1962890625 0.001953125 0.2021484375 0.001953125 0.2099609375 0.001953125 0.2041015625 0.001953125 0.2041015625 0.123046875 0.2568359375 0.314453125 0.2509765625 0.314453125 0.2509765625 0.373046875 0.4130859375 0.314453125 0.4072265625 0.341796875 0.4072265625 0.314453125 0.4208984375 0.314453125 0.4150390625 0.314453125 0.4150390625 0.341796875 0.2177734375 0.001953125 0.2119140625 0.123046875 0.2119140625 0.001953125 0.0458984375 0.251953125 0.0400390625 0.498046875 0.0400390625 0.251953125 0.0478515625 0.251953125 0.0478515625 0.498046875 0.0537109375 0.251953125 0.0615234375 0.251953125 0.0556640625 0.498046875 0.0556640625 0.251953125 0.0693359375 0.251953125 0.0634765625 0.498046875 0.0634765625 0.251953125 0.4931640625 0.501953125 0.4990234375 0.501953125 0.4931640625 0.998046875 0.4228515625 0.341796875 0.4228515625 0.314453125 0.4287109375 0.314453125 0.2587890625 0.314453125 0.2646484375 0.314453125 0.2587890625 0.373046875 0.2255859375 0.001953125 0.2197265625 0.001953125 0.2197265625 0.123046875 0.4365234375 0.314453125 0.4306640625 0.314453125 0.4306640625 0.341796875 0.0712890625 0.498046875 0.0771484375 0.251953125 0.0712890625 0.251953125 0.5693359375 0.501953125 0.5634765625 0.501953125 0.5634765625 0.998046875 0.2666015625 0.373046875 0.2724609375 0.314453125 0.2666015625 0.314453125 0.2333984375 0.001953125 0.2275390625 0.123046875 0.2275390625 0.001953125 0.2412109375 0.001953125 0.2353515625 0.001953125 0.2353515625 0.123046875 0.0791015625 0.251953125 0.0791015625 0.498046875 0.0849609375 0.251953125 0.0869140625 0.251953125 0.0927734375 0.251953125 0.0869140625 0.498046875 0.0947265625 0.251953125 0.0947265625 0.498046875 0.1005859375 0.251953125 0.1083984375 0.251953125 0.1025390625 0.251953125 0.1025390625 0.498046875 0.2822265625 0.314453125 0.2822265625 0.373046875 0.2958984375 0.314453125 0.2744140625 0.314453125 0.2744140625 0.373046875 0.2802734375 0.314453125 0.4384765625 0.314453125 0.4384765625 0.341796875 0.4443359375 0.314453125 0.4462890625 0.314453125 0.4462890625 0.341796875 0.4521484375 0.314453125 0.2431640625 0.001953125 0.2431640625 0.123046875 0.2490234375 0.001953125 0.4541015625 0.314453125 0.4541015625 0.341796875 0.4599609375 0.314453125 0.1162109375 0.251953125 0.1103515625 0.498046875 0.1103515625 0.251953125 0.1396484375 0.251953125 0.1259765625 0.251953125 0.1259765625 0.498046875 0.2509765625 0.376953125 0.2568359375 0.376953125 0.2509765625 0.498046875 0.2587890625 0.376953125 0.2587890625 0.498046875 0.2646484375 0.376953125 0.3037109375 0.314453125 0.2978515625 0.373046875 0.2978515625 0.314453125 0.3115234375 0.314453125 0.3056640625 0.373046875 0.3056640625 0.314453125 0.2666015625 0.498046875 0.2724609375 0.376953125 0.2666015625 0.376953125 0.2802734375 0.376953125 0.2744140625 0.376953125 0.2744140625 0.498046875 0.3193359375 0.314453125 0.3134765625 0.373046875 0.3134765625 0.314453125 0.3271484375 0.314453125 0.3212890625 0.373046875 0.3212890625 0.314453125 0.4677734375 0.314453125 0.4619140625 0.341796875 0.4619140625 0.314453125 0.4755859375 0.314453125 0.4697265625 0.314453125 0.4697265625 0.341796875 0.1181640625 0.251953125 0.1240234375 0.251953125 0.1181640625 0.498046875 0.3291015625 0.373046875 0.3349609375 0.314453125 0.3291015625 0.314453125 0.1416015625 0.498046875 0.1474609375 0.251953125 0.1416015625 0.251953125 0.1494140625 0.251953125 0.1494140625 0.498046875 0.1552734375 0.251953125 0.2822265625 0.376953125 0.2880859375 0.376953125 0.2822265625 0.498046875 0.4775390625 0.341796875 0.4775390625 0.314453125 0.4833984375 0.314453125 0.2900390625 0.376953125 0.2900390625 0.498046875 0.2958984375 0.376953125 0.2978515625 0.376953125 0.3037109375 0.376953125 0.2978515625 0.498046875 0.3056640625 0.498046875 0.3115234375 0.376953125 0.3056640625 0.376953125</float_array>
                    <technique_common>
                        <accessor count="918" source="#uvarray0_VC" stride="2">
                            <param name="S" type="float"/>
                            <param name="T" type="float"/>
                        </accessor>
                    </technique_common>
                </source>
                <vertices id="vertices0_VC">
                    <input semantic="POSITION" source="#points0_VC"/>
                </vertices>
                <polylist count="306" material="Material1">
                    <input offset="0" semantic="VERTEX" source="#vertices0_VC"/>
                    <input offset="1" semantic="TEXCOORD" source="#uvs0_VC" set="0"/>
                    <vcount>3 3 3 3 3 3 3 3 3 3 3 3 3 3 3 3 3 3 3 3 3 3 3 3 3 3 3 3 3 3 3 3 3 3 3 3 3 3 3 3 3 3 3 3 3 3 3 3 3 3 3 3 3 3 3 3 3 3 3 3 3 3 3 3 3 3 3 3 3 3 3 3 3 3 3 3 3 3 3 3 3 3 3 3 3 3 3 3 3 3 3 3 3 3 3 3 3 3 3 3 3 3 3 3 3 3 3 3 3 3 3 3 3 3 3 3 3 3 3 3 3 3 3 3 3 3 3 3 3 3 3 3 3 3 3 3 3 3 3 3 3 3 3 3 3 3 3 3 3 3 3 3 3 3 3 3 3 3 3 3 3 3 3 3 3 3 3 3 3 3 3 3 3 3 3 3 3 3 3 3 3 3 3 3 3 3 3 3 3 3 3 3 3 3 3 3 3 3 3 3 3 3 3 3 3 3 3 3 3 3 3 3 3 3 3 3 3 3 3 3 3 3 3 3 3 3 3 3 3 3 3 3 3 3 3 3 3 3 3 3 3 3 3 3 3 3 3 3 3 3 3 3 3 3 3 3 3 3 3 3 3 3 3 3 3 3 3 3 3 3 3 3 3 3 3 3 3 3 3 3 3 3 3 3 3 3 3 3 3 3 3 3 3 3 3 3 3 3 3 3 3 3 3 3 3 3</vcount>
                    <p>2 0 1 1 0 2 3 3 1 4 2 5 4 6 3 7 2 8 5 9 3 10 4 11 6 12 5 13 4 14 7 15 5 16 6 17 8 18 7 19 6 20 9 21 7 22 8 23 10 24 9 25 8 26 11 27 9 28 10 29 12 30 11 31 10 32 13 33 11 34 12 35 14 36 13 37 12 38 15 39 13 40 14 41 16 42 15 43 14 44 17 45 15 46 16 47 18 48 17 49 16 50 19 51 17 52 18 53 20 54 19 55 18 56 21 57 19 58 20 59 22 60 21 61 20 62 23 63 21 64 22 65 24 66 23 67 22 68 25 69 23 70 24 71 26 72 25 73 24 74 27 75 25 76 26 77 28 78 27 79 26 80 29 81 27 82 28 83 30 84 29 85 28 86 31 87 29 88 30 89 32 90 31 91 30 92 33 93 31 94 32 95 34 96 33 97 32 98 15 99 33 100 34 101 35 102 15 103 34 104 36 105 15 106 35 107 37 108 36 109 35 110 38 111 36 112 37 113 39 114 38 115 37 116 0 117 38 118 39 119 40 120 22 121 20 122 41 123 22 124 40 125 42 126 41 127 40 128 43 129 41 130 42 131 44 132 43 133 42 134 45 135 43 136 44 137 46 138 45 139 44 140 47 141 45 142 46 143 48 144 47 145 46 146 49 147 47 148 48 149 50 150 49 151 48 152 51 153 49 154 50 155 52 156 51 157 50 158 53 159 51 160 52 161 54 162 53 163 52 164 55 165 53 166 54 167 56 168 55 169 54 170 57 171 55 172 56 173 58 174 57 175 56 176 59 177 57 178 58 179 60 180 59 181 58 182 61 183 59 184 60 185 62 186 61 187 60 188 63 189 61 190 62 191 64 192 63 193 62 194 65 195 63 196 64 197 46 198 65 199 64 200 66 201 65 202 46 203 69 204 68 205 67 206 70 207 68 208 69 209 71 210 70 211 69 212 72 213 70 214 71 215 73 216 72 217 71 218 74 219 72 220 73 221 75 222 74 223 73 224 76 225 74 226 75 227 77 228 76 229 75 230 78 231 76 232 77 233 79 234 78 235 77 236 80 237 78 238 79 239 81 240 80 241 79 242 82 243 80 244 81 245 83 246 82 247 81 248 84 249 82 250 83 251 85 252 84 253 83 254 86 255 84 256 85 257 87 258 86 259 85 260 88 261 86 262 87 263 89 264 88 265 87 266 90 267 88 268 89 269 91 270 90 271 89 272 22 273 90 274 91 275 24 276 22 277 91 278 92 279 20 280 18 281 93 282 20 283 92 284 94 285 93 286 92 287 95 288 93 289 94 290 96 291 95 292 94 293 97 294 95 295 96 296 98 297 97 298 96 299 46 300 97 301 98 302 99 303 46 304 98 305 66 306 46 307 99 308 100 309 66 310 99 311 101 312 66 313 100 314 102 315 101 316 100 317 63 318 101 319 102 320 103 321 63 322 102 323 104 324 63 325 103 326 105 327 41 328 43 329 106 330 41 331 105 332 107 333 106 334 105 335 108 336 106 337 107 338 109 339 108 340 107 341 74 342 108 343 109 344 110 345 74 346 109 347 111 348 74 349 110 350 112 351 111 352 110 353 113 354 111 355 112 356 114 357 113 358 112 359 115 360 113 361 114 362 116 363 6 364 4 365 8 366 6 367 116 368 117 369 8 370 116 371 10 372 8 373 117 374 118 375 10 376 117 377 12 378 10 379 118 380 92 381 12 382 118 383 119 384 12 385 92 386 18 387 119 388 92 389 16 390 119 391 18 392 120 393 42 394 40 395 121 396 42 397 120 398 122 399 121 400 120 401 46 402 121 403 122 404 123 405 46 406 122 407 97 408 46 409 123 410 124 411 97 412 123 413 95 414 97 415 124 416 93 417 95 418 124 419 125 420 67 421 68 422 126 423 67 424 125 425 127 426 126 427 125 428 115 429 126 430 127 431 128 432 115 433 127 434 113 435 115 436 128 437 129 438 113 439 128 440 111 441 113 442 129 443 74 444 111 445 129 446 130 447 28 448 26 449 131 450 28 451 130 452 132 453 131 454 130 455 133 456 131 457 132 458 134 459 133 460 132 461 135 462 133 463 134 464 136 465 135 466 134 467 104 468 61 469 63 470 59 471 61 472 104 473 137 474 59 475 104 476 57 477 59 478 137 479 138 480 57 481 137 482 55 483 57 484 138 485 53 486 55 487 138 488 1 489 38 490 0 491 139 492 38 493 1 494 140 495 139 496 1 497 15 498 139 499 140 500 5 501 15 502 140 503 7 504 15 505 5 506 127 507 141 508 128 509 142 510 141 511 127 512 125 513 142 514 127 515 143 516 142 517 125 518 68 519 143 520 125 521 70 522 143 523 68 524 41 525 90 526 22 527 144 528 90 529 41 530 106 531 144 532 41 533 145 534 144 535 106 536 108 537 145 538 106 539 74 540 145 541 108 542 131 543 30 544 28 545 146 546 30 547 131 548 133 549 146 550 131 551 147 552 146 553 133 554 148 555 147 556 133 557 149 558 96 559 94 560 150 561 96 562 149 563 151 564 150 565 149 566 100 567 150 568 151 569 102 570 100 571 151 572 107 573 110 574 109 575 112 576 110 577 107 578 152 579 112 580 107 581 114 582 112 583 152 584 51 585 114 586 152 587 134 588 81 589 79 590 83 591 81 592 134 593 132 594 83 595 134 596 85 597 83 598 132 599 130 600 85 601 132 602 153 603 71 604 69 605 154 606 71 607 153 608 155 609 154 610 153 611 77 612 154 613 155 614 79 615 77 616 155 617 15 618 25 619 27 620 156 621 25 622 15 623 157 624 156 625 15 626 21 627 156 628 157 629 19 630 21 631 157 632 91 633 26 634 24 635 130 636 26 637 91 638 87 639 130 640 91 641 85 642 130 643 87 644 40 645 158 646 120 647 159 648 158 649 40 650 20 651 159 652 40 653 93 654 159 655 20 656 141 657 129 658 128 659 74 660 129 661 141 662 142 663 74 664 141 665 143 666 74 667 142 668 52 669 160 670 54 671 161 672 160 673 52 674 50 675 161 676 52 677 48 678 161 679 50 680 160 681 56 682 54 683 46 684 56 685 160 686 161 687 46 688 160 689 48 690 46 691 161 692 162 693 44 694 42 695 46 696 44 697 162 698 121 699 46 700 162 701 146 702 32 703 30 704 163 705 32 706 146 707 147 708 163 709 146 710 154 711 73 712 71 713 75 714 73 715 154 716 77 717 75 718 154 719 164 720 32 721 163 722 34 723 32 724 164 725 35 726 34 727 164 728 165 729 90 730 144 731 88 732 90 733 165 734 74 735 88 736 165 737 158 738 122 739 120 740 123 741 122 742 158 743 124 744 123 745 158 746 166 747 49 748 105 749 47 750 49 751 166 752 45 753 47 754 166 755 152 756 49 757 51 758 105 759 49 760 152 761 107 762 105 763 152 764 15 765 31 766 33 767 29 768 31 769 15 770 27 771 29 772 15 773 150 774 98 775 96 776 99 777 98 778 150 779 100 780 99 781 150 782 167 783 4 784 2 785 116 786 4 787 167 788 168 789 92 790 118 791 94 792 92 793 168 794 72 795 143 796 70 797 74 798 143 799 72 800 36 801 139 802 15 803 38 804 139 805 36 806 17 807 157 808 15 809 19 810 157 811 17 812 145 813 165 814 144 815 74 816 165 817 145 818 9 819 15 820 7 821 11 822 15 823 9 824 39 825 164 826 163 827 37 828 164 829 39 830 119 831 14 832 12 833 16 834 14 835 119 836 86 837 74 838 84 839 88 840 74 841 86 842 82 843 74 844 80 845 84 846 74 847 82 848 78 849 74 850 76 851 80 852 74 853 78 854 23 855 156 856 21 857 25 858 156 859 23 860 140 861 3 862 5 863 1 864 3 865 140 866 136 867 79 868 155 869 134 870 79 871 136 872 101 873 65 874 66 875 63 876 65 877 101 878 62 879 46 880 64 881 60 882 46 883 62 884 58 885 46 886 60 887 56 888 46 889 58 890 43 891 166 892 105 893 45 894 166 895 43 896 159 897 124 898 158 899 93 900 124 901 159 902 91 903 89 904 87 905 13 906 15 907 11 908 164 909 37 910 35 911 135 912 148 913 133 914 42 915 121 916 162 917</p>
                </polylist>
            </mesh>
        </geometry>
    </library_geometries>
    <library_visual_scenes>
        <visual_scene id="VisualSceneNode">
            <node id="node0" name="m0" type="NODE">
                <instance_geometry url="#mesh0">
                    <bind_material>
                        <technique_common>
                            <instance_material symbol="Material1" target="#mat0">
                                <bind_vertex_input semantic="UVSET0" input_semantic="TEXCOORD" input_set="0"></bind_vertex_input>
                            </instance_material>
                        </technique_common>
                    </bind_material>
                </instance_geometry>
            </node>
            <node id="node0_VC" name="m0_VC" type="NODE">
                <instance_geometry url="#mesh0_VC">
                    <bind_material>
                        <technique_common>
                            <instance_material symbol="Material1" target="#mat_vc">
                                <bind_vertex_input semantic="UVSET0" input_semantic="TEXCOORD" input_set="0"></bind_vertex_input>
                            </instance_material>
                        </technique_common>
                    </bind_material>
                </instance_geometry>
            </node>
        </visual_scene>
    </library_visual_scenes>
    <scene>
        <instance_visual_scene url="#VisualSceneNode"></instance_visual_scene>
    </scene>
</COLLADA>
