<?xml version="1.0" encoding="utf-8"?>
<COLLADA xmlns="http://www.collada.org/2005/11/COLLADASchema" version="1.4.1" xmlns:xsi="http://www.w3.org/2001/XMLSchema-instance">
  <asset>
    <contributor>
      <author>Blender User</author>
      <authoring_tool>Blender 3.6.14 commit date:2024-07-15, commit time:09:00, hash:e480a2c4465b</authoring_tool>
    </contributor>
    <created>2024-09-23T06:40:16</created>
    <modified>2024-09-23T06:40:16</modified>
    <unit name="meter" meter="1"/>
    <up_axis>Z_UP</up_axis>
  </asset>
  <library_effects>
    <effect id="tex_farm_v-effect">
      <profile_COMMON>
        <newparam sid="noukou_new_0621_s3tc_png-surface">
          <surface type="2D">
            <init_from>noukou_new_0621_s3tc_png</init_from>
          </surface>
        </newparam>
        <newparam sid="noukou_new_0621_s3tc_png-sampler">
          <sampler2D>
            <source>noukou_new_0621_s3tc_png-surface</source>
          </sampler2D>
        </newparam>
        <technique sid="common">
          <lambert>
            <emission>
              <color sid="emission">0 0 0 1</color>
            </emission>
            <diffuse>
              <texture texture="noukou_new_0621_s3tc_png-sampler" texcoord="UV 0"/>
            </diffuse>
            <index_of_refraction>
              <float sid="ior">1.45</float>
            </index_of_refraction>
          </lambert>
        </technique>
      </profile_COMMON>
    </effect>
  </library_effects>
  <library_images>
    <image id="noukou_new_0621_s3tc_png" name="noukou_new_0621_s3tc_png">
      <init_from>noukou_new_0621_s3tc.png</init_from>
    </image>
  </library_images>
  <library_materials>
    <material id="tex_farm_v-material" name="tex_farm_v">
      <instance_effect url="#tex_farm_v-effect"/>
    </material>
  </library_materials>
  <library_geometries>
    <geometry id="farm_1-mesh" name="farm_1">
      <mesh>
        <source id="farm_1-mesh-positions">
          <float_array id="farm_1-mesh-positions-array" count="507">-3480.26 -2011.379 1 -3480.26 -1991.981 1 -3418.777 -2001.879 1 -3474.266 -1973.532 1 -3428.722 -2062.916 1 -3409.324 -2062.916 1 -3390.876 -2056.922 1 -3375.183 -2045.52 1 -3363.781 -2029.827 1 -3357.787 -2011.379 1 -3447.171 -2056.922 1 -3462.864 -2045.52 1 -3474.266 -2029.827 1 -3462.864 -1957.839 1 -3447.171 -1946.438 1 -3428.722 -1940.444 1 -3409.324 -1940.443 1 -3357.787 -1991.981 1 -3363.781 -1973.532 1 -3375.183 -1957.839 1 -3390.876 -1946.438 1 -3222.025 -1688.576 1 -3209.191 -1651.302 1 -3180 -1700 1 -3221 -1745 1 -3191.562 -1779.622 1 -3259 -1787 1 -3255 -1865 1 -3330 -1825 1 -3487.964 -1794.204 1 -3569.414 -1804.822 1 -3558.634 -1719 0.999945 -3438.734 -1877.231 1 -3412.591 -1800.889 1 -3104 -2157 1 -3140 -2085 1 -3029.83 -2130.216 1 -3306.757 -2058.883 1 -3275 -2105 1 -3329.928 -2090.775 1 -3294.575 -1981.969 1 -3306.757 -1944.477 1 -3280 -1940 1 -3223.66 -2007.036 1 -3294.575 -2021.391 1 -3158.965 -1814.6 1 -3181.009 -1847.282 1 -3191.875 -1885.176 1 -3190.499 -1924.573 1 -3261.665 -2057.055 1 -3190 -2050 1 -3200 -2115 1 -3361.821 -2113.947 1 -3329.928 -1912.584 1 -3118.441 -1727.087 1 -3051.459 -1775.471 1 -3090.856 -1776.847 1 -3127.9 -1790.329 1 -3394.665 -1638.051 1 -3394.326 -1618.658 1 -3333.277 -1629.423 1 -3388.012 -1600.32 1 -3344.041 -1690.473 1 -3324.649 -1690.811 1 -3306.101 -1685.141 1 -3290.214 -1674.016 1 -3278.541 -1658.526 1 -3272.227 -1640.188 1 -3362.38 -1684.158 1 -3377.87 -1672.486 1 -3388.994 -1656.598 1 -3376.34 -1584.83 1 -3360.452 -1573.705 1 -3341.904 -1568.035 1 -3322.512 -1568.373 1 -3271.888 -1620.795 1 -3277.559 -1602.248 1 -3288.684 -1586.36 1 -3304.173 -1574.687 1 -3274.123 -1518.171 1 -3311.397 -1505.337 1 -3242.64 -1541.896 1 -3220.029 -1574.188 1 -3208.503 -1611.887 1 -3350.812 -1504.649 1 -3388.511 -1516.175 1 -3420.804 -1538.786 1 -3444.528 -1570.27 1 -3446.525 -1684.658 1 -3458.051 -1646.959 1 -3423.914 -1716.95 1 -3392.43 -1740.674 1 -3355.156 -1753.509 1 -3245.75 -1720.06 1 -3278.042 -1742.671 1 -3315.741 -1754.197 1 -3457.363 -1607.543 1 -3120.064 -2014.726 1 -3093.013 -1956.715 1 -3082.17 -2025.592 1 -3074.369 -1962.061 1 -3109.092 -1945.869 1 -3152.746 -1992.682 1 -3121.033 -1930.586 1 -3177.016 -1961.618 1 -3127.667 -1912.36 1 -3054.986 -1961.384 1 -3042.772 -2024.217 1 -3036.76 -1954.751 1 -3005.728 -2010.734 1 -3021.476 -1942.81 1 -2974.664 -1986.463 1 -3010.631 -1926.73 1 -2952.619 -1953.781 1 -3005.285 -1908.086 1 -2941.753 -1915.887 1 -3005.961 -1888.703 1 -2943.129 -1876.489 1 -3128.343 -1892.977 1 -3122.998 -1874.333 1 -3112.152 -1858.253 1 -3096.868 -1846.312 1 -3078.643 -1839.679 1 -3059.259 -1839.002 1 -3012.595 -1870.477 1 -2956.612 -1839.446 1 -3024.536 -1855.194 1 -2980.882 -1808.381 1 -3040.615 -1844.348 1 -3013.564 -1786.337 1 -3066.814 -1900.531 1 -3438.734 -2126.128 1 -3399.313 -2126.128 1 -3476.226 -2113.947 1 -3508.119 -2090.775 1 -3531.29 -2058.883 1 -3543.472 -2021.391 1 -3543.472 -1981.969 1 -3531.29 -1944.477 1 -3508.119 -1912.584 1 -3476.226 -1889.413 1 -3361.821 -1889.413 1 -3399.313 -1877.231 1 -3315 -2199.976 1 -3400 -2200 1 -3500 -2185 1 -3255 -2190 1 -3187.73 -2181.382 1 -2849.242 -1935 1 -2847.934 -1850 1 -2878.221 -1777.444 1 -2935 -1720 1 -2965 -2090 1 -2901.407 -2031.639 1 -3609.611 -1913.063 1 -3625.556 -1986.133 1 -3615 -2070 1 -3570 -2140 1 -3556.632 -1603 1 -3511.715 -1496.536 1 -3448.282 -1436.264 1 -3231.062 -1454.973 1 -3371.344 -1421.12 1 -3295.411 -1426.969 1 -3171.549 -1494.921 1 -3101.698 -1628.536 1 -3127.36 -1562.601 1 -3066.23 -1666.722 1 -3020 -1689.887 1</float_array>
          <technique_common>
            <accessor source="#farm_1-mesh-positions-array" count="169" stride="3">
              <param name="X" type="float"/>
              <param name="Y" type="float"/>
              <param name="Z" type="float"/>
            </accessor>
          </technique_common>
        </source>
        <source id="farm_1-mesh-normals">
          <float_array id="farm_1-mesh-normals-array" count="24">0 0 1 -1.19551e-7 0 1 -2.33535e-7 0 1 -2.69522e-7 0 1 -1.23912e-7 0 1 0 -1.99302e-7 1 0 2.54368e-7 1 0 1.77076e-7 1</float_array>
          <technique_common>
            <accessor source="#farm_1-mesh-normals-array" count="8" stride="3">
              <param name="X" type="float"/>
              <param name="Y" type="float"/>
              <param name="Z" type="float"/>
            </accessor>
          </technique_common>
        </source>
        <source id="farm_1-mesh-map-0">
          <float_array id="farm_1-mesh-map-0-array" count="1836">2.013672 0.01391601 1.609863 -0.05944824 1.809814 -0.3635254 1.609863 -0.05944824 2.013672 0.01391601 1.652222 0.08862304 1.646851 0.2425537 1.652222 0.08862304 2.013672 0.01391601 1.652222 0.08862304 1.646851 0.2425537 1.401489 0.1948242 1.594238 0.387207 1.401489 0.1948242 1.646851 0.2425537 1.401489 0.1948242 1.594238 0.387207 1.375488 0.2659912 1.49939 0.5085449 1.375488 0.2659912 1.594238 0.387207 1.375488 0.2659912 1.49939 0.5085449 1.328857 0.3256836 1.371704 0.5947266 1.328857 0.3256836 1.49939 0.5085449 1.328857 0.3256836 1.371704 0.5947266 1.266113 0.368042 1.223755 0.637085 1.266113 0.368042 1.371704 0.5947266 1.266113 0.368042 1.223755 0.637085 1.193237 0.388916 1.117554 0.3863525 1.193237 0.388916 1.223755 0.637085 1.193237 0.388916 1.117554 0.3863525 1.163696 0.1485595 1.046387 0.3603516 1.163696 0.1485595 1.117554 0.3863525 1.163696 0.1485595 1.046387 0.3603516 0.9865723 0.3137207 0.9251709 0.5791016 0.9865723 0.3137207 1.046387 0.3603516 0.9865723 0.3137207 0.9251709 0.5791016 0.8037109 0.4842529 0.6763916 0.6209717 0.8037109 0.4842529 0.9251709 0.5791016 0.8037109 0.4842529 0.6763916 0.6209717 0.7176514 0.3565674 0.4285889 0.2873535 0.7176514 0.3565674 0.6763916 0.6209717 0.7176514 0.3565674 0.4285889 0.2873535 0.6751709 0.2086181 0.680542 0.0546875 0.6751709 0.2086181 0.4285889 0.2873535 0.6751709 0.2086181 0.680542 0.0546875 0.9260254 0.1024169 0.7332764 -0.08996582 0.9260254 0.1024169 0.680542 0.0546875 0.9260254 0.1024169 0.7332764 -0.08996582 0.9519043 0.03125 0.8280029 -0.2113037 0.9519043 0.03125 0.7332764 -0.08996582 0.9519043 0.03125 0.8280029 -0.2113037 0.9985352 -0.02844238 0.9556885 -0.2974854 0.9985352 -0.02844238 0.8280029 -0.2113037 0.9985352 -0.02844238 0.9556885 -0.2974854 1.061401 -0.07080078 1.10376 -0.3399658 1.061401 -0.07080078 0.9556885 -0.2974854 1.061401 -0.07080078 1.10376 -0.3399658 1.134277 -0.09179687 1.209961 -0.08911132 1.134277 -0.09179687 1.10376 -0.3399658 1.134277 -0.09179687 1.209961 -0.08911132 1.163696 0.1485595 1.281128 -0.06323242 1.163696 0.1485595 1.209961 -0.08911132 1.163696 0.1485595 1.281128 -0.06323242 1.34082 -0.01647949 1.402344 -0.2818604 1.34082 -0.01647949 1.281128 -0.06323242 1.34082 -0.01647949 1.402344 -0.2818604 1.523682 -0.1870117 1.561401 -0.5915527 1.523682 -0.1870117 1.402344 -0.2818604 1.523682 -0.1870117 1.561401 -0.5915527 1.809814 -0.3635254 0.4129639 0.592041 0.4285889 0.2873535 0.6763916 0.6209717 0.4285889 0.2873535 0.4129639 0.592041 0.1356201 0.4436035 0.1914062 0.7202149 0.1356201 0.4436035 0.4129639 0.592041 0.1356201 0.4436035 0.1914062 0.7202149 0.03735351 0.7229004 0.08081054 0.9691162 0.03735351 0.7229004 0.1914062 0.7202149 0.03735351 0.7229004 0.08081054 0.9691162 0.009155273 0.9937744 0.1229248 1.20752 0.009155273 0.9937744 0.08081054 0.9691162 0.009155273 0.9937744 0.1229248 1.20752 -0.05114746 1.039307 -0.09460449 1.101318 -0.05114746 1.039307 0.1229248 1.20752 -0.05114746 1.039307 -0.09460449 1.101318 -0.2310791 0.8657227 -0.3193359 0.9918213 -0.2310791 0.8657227 -0.09460449 1.101318 -0.2310791 0.8657227 -0.3193359 0.9918213 -0.7573242 0.857666 -0.3643799 1.139038 -0.7573242 0.857666 -0.3193359 0.9918213 -0.7573242 0.857666 -0.3643799 1.139038 -0.7495117 1.310669 -0.3616943 1.292969 -0.7495117 1.310669 -0.3643799 1.139038 -0.7495117 1.310669 -0.3616943 1.292969 -0.3116455 1.438599 -0.09082031 1.321167 -0.3116455 1.438599 -0.3616943 1.292969 -0.3116455 1.438599 -0.09082031 1.321167 -0.218872 1.561523 -0.04528808 1.381714 -0.218872 1.561523 -0.09082031 1.321167 -0.218872 1.561523 -0.04528808 1.381714 -0.09277343 1.649902 0.01672363 1.425171 -0.09277343 1.649902 -0.04528808 1.381714 -0.09277343 1.649902 0.01672363 1.425171 0.05432128 1.694946 0.08911132 1.447266 0.05432128 1.694946 0.01672363 1.425171 0.05432128 1.694946 0.08911132 1.447266 0.208374 1.692261 0.1649169 1.445923 0.208374 1.692261 0.08911132 1.447266 0.208374 1.692261 0.1649169 1.445923 0.2365722 1.421265 0.1229248 1.20752 0.2365722 1.421265 0.1649169 1.445923 0.2365722 1.421265 0.1229248 1.20752 0.2969971 1.375732 -0.8017578 -0.7868652 -0.6505127 -0.4699707 -0.9775391 -0.5134277 -0.6505127 -0.4699707 -0.8017578 -0.7868652 -0.5599365 -0.5944824 -0.4354248 -0.6850586 -0.5599365 -0.5944824 -0.8017578 -0.7868652 -0.5599365 -0.5944824 -0.4354248 -0.6850586 -0.3831787 -0.4177246 -0.3218994 -0.4622803 -0.3831787 -0.4177246 -0.4354248 -0.6850586 -0.3831787 -0.4177246 -0.3218994 -0.4622803 -0.2110595 -0.2473144 -0.2498779 -0.4857178 -0.2110595 -0.2473144 -0.3218994 -0.4622803 -0.2110595 -0.2473144 -0.2498779 -0.4857178 -0.1740722 -0.4857178 -0.1350097 -0.732666 -0.1740722 -0.4857178 -0.2498779 -0.4857178 -0.1740722 -0.4857178 -0.1350097 -0.732666 -0.1020507 -0.4622803 0.01135253 -0.6850586 -0.1020507 -0.4622803 -0.1350097 -0.732666 -0.1020507 -0.4622803 0.01135253 -0.6850586 -0.04077148 -0.4177246 0.1359863 -0.5944824 -0.04077148 -0.4177246 0.01135253 -0.6850586 -0.04077148 -0.4177246 0.1359863 -0.5944824 0.003662109 -0.3564453 0.2264404 -0.4699707 0.003662109 -0.3564453 0.1359863 -0.5944824 0.003662109 -0.3564453 0.2264404 -0.4699707 0.0270996 -0.2844238 0.2740479 -0.3234863 0.0270996 -0.2844238 0.2264404 -0.4699707 0.0270996 -0.2844238 0.2740479 -0.3234863 0.0270996 -0.2086181 0.2740479 -0.1695556 0.0270996 -0.2086181 0.2740479 -0.3234863 0.0270996 -0.2086181 0.2740479 -0.1695556 0.003662109 -0.1365966 0.2264404 -0.02307128 0.003662109 -0.1365966 0.2740479 -0.1695556 0.003662109 -0.1365966 0.2264404 -0.02307128 0.1359863 0.1015625 0.3309326 -0.005615234 0.1359863 0.1015625 0.2264404 -0.02307128 0.1359863 0.1015625 0.3309326 -0.005615234 0.4285889 0.2873535 0.680542 0.0546875 0.4285889 0.2873535 0.3309326 -0.005615234 0.9620361 0.8261719 0.6763916 0.6209717 0.9251709 0.5791016 0.6763916 0.6209717 0.9620361 0.8261719 0.7215576 0.9318848 1.027466 1.210937 0.7215576 0.9318848 0.9620361 0.8261719 0.7215576 0.9318848 1.027466 1.210937 0.607544 1.12207 0.6102295 1.276001 0.607544 1.12207 1.027466 1.210937 0.607544 1.12207 0.6102295 1.276001 0.3613281 1.165405 0.3626709 1.241211 0.3613281 1.165405 0.6102295 1.276001 0.3613281 1.165405 0.3626709 1.241211 0.1229248 1.20752 0.3404541 1.313599 0.1229248 1.20752 0.3626709 1.241211 0.1229248 1.20752 0.3404541 1.313599 0.2969971 1.375732 0.4769287 1.549438 0.2969971 1.375732 0.3404541 1.313599 0.2969971 1.375732 0.4769287 1.549438 0.3538818 1.64209 0.5220947 1.888916 0.3538818 1.64209 0.4769287 1.549438 0.3538818 1.64209 0.5220947 1.888916 0.208374 1.692261 0.270752 1.998291 0.208374 1.692261 0.5220947 1.888916 0.208374 1.692261 0.270752 1.998291 -0.02575683 2.02124 -0.1868896 0.5378418 0.1356201 0.4436035 0.03735351 0.7229004 0.1356201 0.4436035 -0.1868896 0.5378418 -0.1350097 0.239624 -0.2889404 0.239624 -0.1350097 0.239624 -0.1868896 0.5378418 -0.1350097 0.239624 -0.2889404 0.239624 -0.1740722 -0.007324218 -0.2498779 -0.007324218 -0.1740722 -0.007324218 -0.2889404 0.239624 -0.1740722 -0.007324218 -0.2498779 -0.007324218 -0.2110595 -0.2473144 -0.3218994 -0.03076171 -0.2110595 -0.2473144 -0.2498779 -0.007324218 -0.2110595 -0.2473144 -0.3218994 -0.03076171 -0.3831787 -0.07519531 -0.4354248 0.1920166 -0.3831787 -0.07519531 -0.3218994 -0.03076171 -0.3831787 -0.07519531 -0.4354248 0.1920166 -0.5599365 0.1015625 -0.7994385 0.5224609 -0.5599365 0.1015625 -0.4354248 0.1920166 -0.5599365 0.1015625 -0.7994385 0.5224609 -0.9564209 0.09960937 1.900391 0.6293945 1.594238 0.387207 1.646851 0.2425537 1.594238 0.387207 1.900391 0.6293945 1.49939 0.5085449 1.678589 0.8537598 1.49939 0.5085449 1.900391 0.6293945 1.49939 0.5085449 1.678589 0.8537598 1.371704 0.5947266 1.346558 0.9714356 1.371704 0.5947266 1.678589 0.8537598 1.371704 0.5947266 1.346558 0.9714356 1.223755 0.637085 0.9620361 0.8261719 1.223755 0.637085 1.346558 0.9714356 1.223755 0.637085 0.9620361 0.8261719 1.069824 0.6317139 0.9251709 0.5791016 1.069824 0.6317139 0.9620361 0.8261719 1.069824 0.6317139 0.9251709 0.5791016 1.046387 0.3603516 0.3386231 0.7652588 0.1914062 0.7202149 0.4129639 0.592041 0.1914062 0.7202149 0.3386231 0.7652588 0.2290039 0.9899902 0.2911377 1.033325 0.2290039 0.9899902 0.3386231 0.7652588 0.2290039 0.9899902 0.2911377 1.033325 0.1229248 1.20752 0.3366699 1.093872 0.1229248 1.20752 0.2911377 1.033325 0.1229248 1.20752 0.3366699 1.093872 0.3613281 1.165405 0.5574951 0.9765625 0.3613281 1.165405 0.3366699 1.093872 0.3613281 1.165405 0.5574951 0.9765625 0.607544 1.12207 0.7215576 0.9318848 0.607544 1.12207 0.5574951 0.9765625 -0.6981201 -0.3234863 -0.9775391 -0.5134277 -0.6505127 -0.4699707 -0.9775391 -0.5134277 -0.6981201 -0.3234863 -1.018677 -0.185791 -0.6981201 -0.1695556 -1.018677 -0.185791 -0.6981201 -0.3234863 -1.018677 -0.185791 -0.6981201 -0.1695556 -0.9564209 0.09960937 -0.6505127 -0.02307128 -0.9564209 0.09960937 -0.6981201 -0.1695556 -0.9564209 0.09960937 -0.6505127 -0.02307128 -0.5599365 0.1015625 -0.4277344 -0.1365966 -0.5599365 0.1015625 -0.6505127 -0.02307128 -0.5599365 0.1015625 -0.4277344 -0.1365966 -0.3831787 -0.07519531 -0.2110595 -0.2473144 -0.3831787 -0.07519531 -0.4277344 -0.1365966 0.5510254 -0.2674561 0.8280029 -0.2113037 0.7332764 -0.08996582 0.8280029 -0.2113037 0.5510254 -0.2674561 0.6824951 -0.4353027 0.4025879 -0.4627686 0.6824951 -0.4353027 0.5510254 -0.2674561 0.6824951 -0.4353027 0.4025879 -0.4627686 0.6434326 -0.689209 0.3504639 -0.6501465 0.6434326 -0.689209 0.4025879 -0.4627686 0.6434326 -0.689209 0.3504639 -0.6501465 0.4285889 -0.9821777 0.1942138 -1.021118 0.4285889 -0.9821777 0.3504639 -0.6501465 -0.02575683 2.02124 0.05432128 1.694946 0.208374 1.692261 0.05432128 1.694946 -0.02575683 2.02124 -0.09277343 1.649902 -0.326294 1.962036 -0.09277343 1.649902 -0.02575683 2.02124 -0.09277343 1.649902 -0.326294 1.962036 -0.218872 1.561523 -0.5740967 1.726562 -0.218872 1.561523 -0.326294 1.962036 -0.218872 1.561523 -0.5740967 1.726562 -0.3116455 1.438599 -0.7495117 1.310669 -0.3116455 1.438599 -0.5740967 1.726562 1.609863 -0.05944824 1.523682 -0.1870117 1.809814 -0.3635254 1.523682 -0.1870117 1.609863 -0.05944824 1.383179 0.04626464 1.404053 0.1191406 1.383179 0.04626464 1.609863 -0.05944824 1.383179 0.04626464 1.404053 0.1191406 1.163696 0.1485595 1.401489 0.1948242 1.163696 0.1485595 1.404053 0.1191406 1.163696 0.1485595 1.401489 0.1948242 1.375488 0.2659912 -0.6981201 -0.1695556 -0.4511719 -0.2086181 -0.6505127 -0.02307128 -0.4511719 -0.2086181 -0.6981201 -0.1695556 -0.4511719 -0.2844238 -0.6981201 -0.3234863 -0.4511719 -0.2844238 -0.6981201 -0.1695556 -0.4511719 -0.2844238 -0.6981201 -0.3234863 -0.4277344 -0.3564453 -0.6505127 -0.4699707 -0.4277344 -0.3564453 -0.6981201 -0.3234863 -0.4277344 -0.3564453 -0.6505127 -0.4699707 -0.5599365 -0.5944824 0.1356201 0.4436035 0.1359863 0.1015625 0.4285889 0.2873535 0.1359863 0.1015625 0.1356201 0.4436035 0.01135253 0.1920166 -0.1350097 0.239624 0.01135253 0.1920166 0.1356201 0.4436035 0.01135253 0.1920166 -0.1350097 0.239624 -0.1020507 -0.03076171 -0.1740722 -0.007324218 -0.1020507 -0.03076171 -0.1350097 0.239624 -0.1020507 -0.03076171 -0.1740722 -0.007324218 -0.2110595 -0.2473144 0.6824951 -0.4353027 0.9556885 -0.2974854 0.8280029 -0.2113037 0.9556885 -0.2974854 0.6824951 -0.4353027 0.8778076 -0.5720215 0.6434326 -0.689209 0.8778076 -0.5720215 0.6824951 -0.4353027 0.8778076 -0.5720215 0.6434326 -0.689209 1.018433 -0.8532715 0.6914063 -0.9484863 1.018433 -0.8532715 0.6434326 -0.689209 0.9272461 1.468506 0.6102295 1.276001 1.027466 1.210937 0.6102295 1.276001 0.9272461 1.468506 0.5651856 1.423218 0.7546387 1.73291 0.5651856 1.423218 0.9272461 1.468506 0.5651856 1.423218 0.7546387 1.73291 0.4769287 1.549438 0.5220947 1.888916 0.4769287 1.549438 0.7546387 1.73291 -0.2889404 0.239624 -0.3218994 -0.03076171 -0.2498779 -0.007324218 -0.3218994 -0.03076171 -0.2889404 0.239624 -0.4354248 0.1920166 -0.4813233 0.5639649 -0.4354248 0.1920166 -0.2889404 0.239624 -0.4354248 0.1920166 -0.4813233 0.5639649 -0.7994385 0.5224609 -0.7573242 0.857666 -0.7994385 0.5224609 -0.4813233 0.5639649 0.3504639 -0.6501465 0.1359863 -0.5944824 0.01135253 -0.6850586 0.1359863 -0.5944824 0.3504639 -0.6501465 0.2264404 -0.4699707 0.4025879 -0.4627686 0.2264404 -0.4699707 0.3504639 -0.6501465 0.2264404 -0.4699707 0.4025879 -0.4627686 0.2740479 -0.3234863 0.5510254 -0.2674561 0.2740479 -0.3234863 0.4025879 -0.4627686 -0.5283203 -0.9626465 -0.4354248 -0.6850586 -0.8017578 -0.7868652 -0.4354248 -0.6850586 -0.5283203 -0.9626465 -0.2889404 -0.732666 -0.1376953 -1.02124 -0.2889404 -0.732666 -0.5283203 -0.9626465 -0.2889404 -0.732666 -0.1376953 -1.02124 -0.1350097 -0.732666 0.01135253 -0.6850586 -0.1350097 -0.732666 -0.1376953 -1.02124 1.163696 0.1485595 0.9260254 0.1024169 0.9519043 0.03125 0.9260254 0.1024169 1.163696 0.1485595 0.9233399 0.1781005 0.9442139 0.2509766 0.9233399 0.1781005 1.163696 0.1485595 0.9233399 0.1781005 0.9442139 0.2509766 0.7176514 0.3565674 0.8037109 0.4842529 0.7176514 0.3565674 0.9442139 0.2509766 0.3309326 -0.005615234 0.7332764 -0.08996582 0.680542 0.0546875 0.7332764 -0.08996582 0.3309326 -0.005615234 0.5510254 -0.2674561 0.2740479 -0.1695556 0.5510254 -0.2674561 0.3309326 -0.005615234 0.5510254 -0.2674561 0.2740479 -0.1695556 0.2740479 -0.3234863 0.4129639 0.592041 0.4647217 0.8536377 0.3386231 0.7652588 0.4647217 0.8536377 0.4129639 0.592041 0.5614014 0.7561035 0.6763916 0.6209717 0.5614014 0.7561035 0.4129639 0.592041 0.5614014 0.7561035 0.6763916 0.6209717 0.7215576 0.9318848 -0.4511719 -0.2086181 -0.4277344 -0.1365966 -0.6505127 -0.02307128 -0.4277344 -0.1365966 -0.4511719 -0.2086181 -0.2110595 -0.2473144 -0.4511719 -0.2844238 -0.2110595 -0.2473144 -0.4511719 -0.2086181 -0.2110595 -0.2473144 -0.4511719 -0.2844238 -0.4277344 -0.3564453 -0.3643799 1.139038 -0.1154785 1.249512 -0.3616943 1.292969 -0.1154785 1.249512 -0.3643799 1.139038 -0.1168212 1.173828 -0.3193359 0.9918213 -0.1168212 1.173828 -0.3643799 1.139038 -0.1168212 1.173828 -0.3193359 0.9918213 -0.09460449 1.101318 -0.1154785 1.249512 -0.09082031 1.321167 -0.3616943 1.292969 -0.09082031 1.321167 -0.1154785 1.249512 0.1229248 1.20752 -0.1168212 1.173828 0.1229248 1.20752 -0.1154785 1.249512 0.1229248 1.20752 -0.1168212 1.173828 -0.09460449 1.101318 0.1566162 0.9677734 0.08081054 0.9691162 0.1914062 0.7202149 0.08081054 0.9691162 0.1566162 0.9677734 0.1229248 1.20752 0.2290039 0.9899902 0.1229248 1.20752 0.1566162 0.9677734 0.8778076 -0.5720215 1.10376 -0.3399658 0.9556885 -0.2974854 1.10376 -0.3399658 0.8778076 -0.5720215 1.308228 -0.7485352 1.018433 -0.8532715 1.308228 -0.7485352 0.8778076 -0.5720215 -0.2889404 -0.732666 -0.3218994 -0.4622803 -0.4354248 -0.6850586 -0.3218994 -0.4622803 -0.2889404 -0.732666 -0.2498779 -0.4857178 -0.1350097 -0.732666 -0.2498779 -0.4857178 -0.2889404 -0.732666 1.25769 -0.3345947 1.10376 -0.3399658 1.308228 -0.7485352 1.10376 -0.3399658 1.25769 -0.3345947 1.209961 -0.08911132 1.281128 -0.06323242 1.209961 -0.08911132 1.25769 -0.3345947 -0.04077148 -0.07519531 0.1359863 0.1015625 0.01135253 0.1920166 0.1359863 0.1015625 -0.04077148 -0.07519531 0.003662109 -0.1365966 -0.2110595 -0.2473144 0.003662109 -0.1365966 -0.04077148 -0.07519531 0.4647217 0.8536377 0.2911377 1.033325 0.3386231 0.7652588 0.2911377 1.033325 0.4647217 0.8536377 0.3366699 1.093872 0.5574951 0.9765625 0.3366699 1.093872 0.4647217 0.8536377 -0.1080322 0.7730713 -0.2310791 0.8657227 -0.1868896 0.5378418 -0.2310791 0.8657227 -0.1080322 0.7730713 -0.05114746 1.039307 0.009155273 0.9937744 -0.05114746 1.039307 -0.1080322 0.7730713 -0.4813233 0.5639649 -0.2310791 0.8657227 -0.7573242 0.857666 -0.2310791 0.8657227 -0.4813233 0.5639649 -0.1868896 0.5378418 -0.2889404 0.239624 -0.1868896 0.5378418 -0.4813233 0.5639649 1.163696 0.1485595 1.061401 -0.07080078 1.134277 -0.09179687 1.061401 -0.07080078 1.163696 0.1485595 0.9985352 -0.02844238 0.9519043 0.03125 0.9985352 -0.02844238 1.163696 0.1485595 0.5651856 1.423218 0.3626709 1.241211 0.6102295 1.276001 0.3626709 1.241211 0.5651856 1.423218 0.3404541 1.313599 0.4769287 1.549438 0.3404541 1.313599 0.5651856 1.423218 2.018677 0.3459473 1.646851 0.2425537 2.013672 0.01391601 1.646851 0.2425537 2.018677 0.3459473 1.900391 0.6293945 1.166016 1.061768 0.9620361 0.8261719 1.346558 0.9714356 0.9620361 0.8261719 1.166016 1.061768 1.027466 1.210937 -0.3831787 -0.4177246 -0.4277344 -0.3564453 -0.5599365 -0.5944824 -0.4277344 -0.3564453 -0.3831787 -0.4177246 -0.2110595 -0.2473144 1.34082 -0.01647949 1.383179 0.04626464 1.163696 0.1485595 1.383179 0.04626464 1.34082 -0.01647949 1.523682 -0.1870117 0.9865723 0.3137207 0.9442139 0.2509766 1.163696 0.1485595 0.9442139 0.2509766 0.9865723 0.3137207 0.8037109 0.4842529 -0.1020507 -0.03076171 -0.04077148 -0.07519531 0.01135253 0.1920166 -0.04077148 -0.07519531 -0.1020507 -0.03076171 -0.2110595 -0.2473144 1.328857 0.3256836 1.163696 0.1485595 1.375488 0.2659912 1.163696 0.1485595 1.328857 0.3256836 1.266113 0.368042 1.561401 -0.5915527 1.25769 -0.3345947 1.308228 -0.7485352 1.25769 -0.3345947 1.561401 -0.5915527 1.402344 -0.2818604 1.069824 0.6317139 1.117554 0.3863525 1.223755 0.637085 1.117554 0.3863525 1.069824 0.6317139 1.046387 0.3603516 0.0270996 -0.2086181 -0.2110595 -0.2473144 0.0270996 -0.2844238 -0.2110595 -0.2473144 0.0270996 -0.2086181 0.003662109 -0.1365966 0.003662109 -0.3564453 -0.2110595 -0.2473144 -0.04077148 -0.4177246 -0.2110595 -0.2473144 0.003662109 -0.3564453 0.0270996 -0.2844238 -0.1020507 -0.4622803 -0.2110595 -0.2473144 -0.1740722 -0.4857178 -0.2110595 -0.2473144 -0.1020507 -0.4622803 -0.04077148 -0.4177246 0.6751709 0.2086181 0.9233399 0.1781005 0.7176514 0.3565674 0.9233399 0.1781005 0.6751709 0.2086181 0.9260254 0.1024169 1.404053 0.1191406 1.652222 0.08862304 1.401489 0.1948242 1.652222 0.08862304 1.404053 0.1191406 1.609863 -0.05944824 0.1942138 -1.021118 0.01135253 -0.6850586 -0.1376953 -1.02124 0.01135253 -0.6850586 0.1942138 -1.021118 0.3504639 -0.6501465 0.3538818 1.64209 0.2365722 1.421265 0.2969971 1.375732 0.2365722 1.421265 0.3538818 1.64209 0.208374 1.692261 0.08911132 1.447266 0.1229248 1.20752 0.1649169 1.445923 0.1229248 1.20752 0.08911132 1.447266 0.01672363 1.425171 -0.04528808 1.381714 0.1229248 1.20752 0.01672363 1.425171 0.1229248 1.20752 -0.04528808 1.381714 -0.09082031 1.321167 0.03735351 0.7229004 -0.1080322 0.7730713 -0.1868896 0.5378418 -0.1080322 0.7730713 0.03735351 0.7229004 0.009155273 0.9937744 0.5614014 0.7561035 0.5574951 0.9765625 0.4647217 0.8536377 0.5574951 0.9765625 0.5614014 0.7561035 0.7215576 0.9318848 0.3309326 -0.005615234 0.2264404 -0.02307128 0.2740479 -0.1695556 1.193237 0.388916 1.163696 0.1485595 1.266113 0.368042 1.25769 -0.3345947 1.402344 -0.2818604 1.281128 -0.06323242 0.4285889 -0.9821777 0.6914063 -0.9484863 0.6434326 -0.689209 0.1914062 0.7202149 0.2290039 0.9899902 0.1566162 0.9677734</float_array>
          <technique_common>
            <accessor source="#farm_1-mesh-map-0-array" count="918" stride="2">
              <param name="S" type="float"/>
              <param name="T" type="float"/>
            </accessor>
          </technique_common>
        </source>
        <source id="farm_1-mesh-colors-v_color_0" name="v_color_0">
          <float_array id="farm_1-mesh-colors-v_color_0-array" count="3672">0 0 0.0980392 1 0 0 0.5019608 1 0 0 0.09411764 1 0 0 0.5019608 1 0 0 0.0980392 1 0 0 0.509804 1 0 0 0.5176471 1 0 0 0.509804 1 0 0 0.0980392 1 0 0 0.509804 1 0 0 0.5176471 1 0 0 0.5137255 1 0 0 0.5450981 1 0 0 0.5137255 1 0 0 0.5176471 1 0 0 0.5137255 1 0 0 0.5450981 1 0 0 0.5490196 1 0 0 0.5529412 1 0 0 0.5490196 1 0 0 0.5450981 1 0 0 0.5490196 1 0 0 0.5529412 1 0 0 0.5568628 1 0 0 0.5607843 1 0 0 0.5568628 1 0 0 0.5529412 1 0 0 0.5568628 1 0 0 0.5607843 1 0 0 0.5647059 1 0 0 0.2705882 1 0 0 0.5647059 1 0 0 0.5607843 1 0 0 0.5647059 1 0 0 0.2705882 1 0 0 0.5411765 1 0 0 0.5372549 1 0 0 0.5411765 1 0 0 0.2705882 1 0 0 0.5411765 1 0 0 0.5372549 1 0 0 0.5686275 1 0 0 0.5333334 1 0 0 0.5686275 1 0 0 0.5372549 1 0 0 0.5686275 1 0 0 0.5333334 1 0 0 0.5294118 1 0 0 0.2784314 1 0 0 0.5294118 1 0 0 0.5333334 1 0 0 0.5294118 1 0 0 0.2784314 1 0 0 0.2392157 1 0 0 0.1254902 1 0 0 0.2392157 1 0 0 0.2784314 1 0 0 0.2392157 1 0 0 0.1254902 1 0 0 0.2352941 1 0 0 0.1294118 1 0 0 0.2352941 1 0 0 0.1254902 1 0 0 0.2352941 1 0 0 0.1294118 1 0 0 0.2431373 1 0 0 0.2470588 1 0 0 0.2431373 1 0 0 0.1294118 1 0 0 0.2431373 1 0 0 0.2470588 1 0 0 0.4705882 1 0 0 0.4666666 1 0 0 0.4705882 1 0 0 0.2470588 1 0 0 0.4705882 1 0 0 0.4666666 1 0 0 0.4627451 1 0 0 0.4588235 1 0 0 0.4627451 1 0 0 0.4666666 1 0 0 0.4627451 1 0 0 0.4588235 1 0 0 0.4549019 1 0 0 0.4470588 1 0 0 0.4549019 1 0 0 0.4588235 1 0 0 0.4549019 1 0 0 0.4470588 1 0 0 0.4431372 1 0 0 0.4392157 1 0 0 0.4431372 1 0 0 0.4470588 1 0 0 0.4431372 1 0 0 0.4392157 1 0 0 0.4509804 1 0 0 0.4745098 1 0 0 0.4509804 1 0 0 0.4392157 1 0 0 0.4509804 1 0 0 0.4745098 1 0 0 0.5686275 1 0 0 0.4823529 1 0 0 0.5686275 1 0 0 0.4745098 1 0 0 0.5686275 1 0 0 0.4823529 1 0 0 0.4901961 1 0 0 0.4862745 1 0 0 0.4901961 1 0 0 0.4823529 1 0 0 0.4901961 1 0 0 0.4862745 1 0 0 0.4941176 1 0 0 0.08235293 1 0 0 0.4941176 1 0 0 0.4862745 1 0 0 0.4941176 1 0 0 0.08235293 1 0 0 0.09411764 1 0 0 0.1333333 1 0 0 0.1294118 1 0 0 0.1254902 1 0 0 0.1294118 1 0 0 0.1333333 1 0 0 0.1372549 1 0 0 0.4313725 1 0 0 0.1372549 1 0 0 0.1333333 1 0 0 0.1372549 1 0 0 0.4313725 1 0 0 0.4156863 1 0 0 0.3019608 1 0 0 0.4156863 1 0 0 0.4313725 1 0 0 0.4156863 1 0 0 0.3019608 1 0 0 0.3215686 1 0 0 0.2823529 1 0 0 0.3215686 1 0 0 0.3019608 1 0 0 0.3215686 1 0 0 0.2823529 1 0 0 0.3254902 1 0 0 0.3294118 1 0 0 0.3254902 1 0 0 0.2823529 1 0 0 0.3254902 1 0 0 0.3294118 1 0 0 0.4078431 1 0 0 0.4 1 0 0 0.4078431 1 0 0 0.3294118 1 0 0 0.4078431 1 0 0 0.4 1 0 0 0.145098 1 0 0 0.4039216 1 0 0 0.145098 1 0 0 0.4 1 0 0 0.145098 1 0 0 0.4039216 1 0 0 0.1568627 1 0 0 0.4352941 1 0 0 0.1568627 1 0 0 0.4039216 1 0 0 0.1568627 1 0 0 0.4352941 1 0 0 0.3960784 1 0 0 0.2941176 1 0 0 0.3960784 1 0 0 0.4352941 1 0 0 0.3960784 1 0 0 0.2941176 1 0 0 0.3921568 1 0 0 0.3333333 1 0 0 0.3921568 1 0 0 0.2941176 1 0 0 0.3921568 1 0 0 0.3333333 1 0 0 0.3882353 1 0 0 0.3372549 1 0 0 0.3882353 1 0 0 0.3333333 1 0 0 0.3882353 1 0 0 0.3372549 1 0 0 0.3843137 1 0 0 0.3411765 1 0 0 0.3843137 1 0 0 0.3372549 1 0 0 0.3843137 1 0 0 0.3411765 1 0 0 0.3647059 1 0 0 0.345098 1 0 0 0.3647059 1 0 0 0.3411765 1 0 0 0.3647059 1 0 0 0.345098 1 0 0 0.3607843 1 0 0 0.2823529 1 0 0 0.3607843 1 0 0 0.345098 1 0 0 0.3607843 1 0 0 0.2823529 1 0 0 0.3568627 1 0 0 0.1764706 1 0 0 0.5882353 1 0 0 0.1647059 1 0 0 0.5882353 1 0 0 0.1764706 1 0 0 0.5843138 1 0 0 0.5803922 1 0 0 0.5843138 1 0 0 0.1764706 1 0 0 0.5843138 1 0 0 0.5803922 1 0 0 0.04313725 1 0 0 0.03921568 1 0 0 0.04313725 1 0 0 0.5803922 1 0 0 0.04313725 1 0 0 0.03921568 1 0 0 0 1 0 0 0.01960784 1 0 0 0 1 0 0 0.03921568 1 0 0 0 1 0 0 0.01960784 1 0 0 0.01568627 1 0 0 0.5725491 1 0 0 0.01568627 1 0 0 0.01960784 1 0 0 0.01568627 1 0 0 0.5725491 1 0 0 0.02352941 1 0 0 0.2588235 1 0 0 0.02352941 1 0 0 0.5725491 1 0 0 0.02352941 1 0 0 0.2588235 1 0 0 0.02745097 1 0 0 0.2039216 1 0 0 0.02745097 1 0 0 0.2588235 1 0 0 0.02745097 1 0 0 0.2039216 1 0 0 0.03137254 1 0 0 0.2117647 1 0 0 0.03137254 1 0 0 0.2039216 1 0 0 0.03137254 1 0 0 0.2117647 1 0 0 0.03529411 1 0 0 0.227451 1 0 0 0.03529411 1 0 0 0.2117647 1 0 0 0.03529411 1 0 0 0.227451 1 0 0 0.06666666 1 0 0 0.2235294 1 0 0 0.06666666 1 0 0 0.227451 1 0 0 0.06666666 1 0 0 0.2235294 1 0 0 0.07058823 1 0 0 0.2196078 1 0 0 0.07058823 1 0 0 0.2235294 1 0 0 0.07058823 1 0 0 0.2196078 1 0 0 0.2627451 1 0 0 0.2156863 1 0 0 0.2627451 1 0 0 0.2196078 1 0 0 0.2627451 1 0 0 0.2156863 1 0 0 0.1294118 1 0 0 0.2470588 1 0 0 0.1294118 1 0 0 0.2156863 1 0 0 0.2745098 1 0 0 0.1254902 1 0 0 0.2784314 1 0 0 0.1254902 1 0 0 0.2745098 1 0 0 0.1137255 1 0 0 0.6470589 1 0 0 0.1137255 1 0 0 0.2745098 1 0 0 0.1137255 1 0 0 0.6470589 1 0 0 0.1176471 1 0 0 0.3803921 1 0 0 0.1176471 1 0 0 0.6470589 1 0 0 0.1176471 1 0 0 0.3803921 1 0 0 0.317647 1 0 0 0.3490196 1 0 0 0.317647 1 0 0 0.3803921 1 0 0 0.317647 1 0 0 0.3490196 1 0 0 0.2823529 1 0 0 0.3529412 1 0 0 0.2823529 1 0 0 0.3490196 1 0 0 0.2823529 1 0 0 0.3529412 1 0 0 0.3568627 1 0 0 0.372549 1 0 0 0.3568627 1 0 0 0.3529412 1 0 0 0.3568627 1 0 0 0.372549 1 0 0 0.3686274 1 0 0 0.6313726 1 0 0 0.3686274 1 0 0 0.372549 1 0 0 0.3686274 1 0 0 0.6313726 1 0 0 0.3647059 1 0 0 0.6392157 1 0 0 0.3647059 1 0 0 0.6313726 1 0 0 0.3647059 1 0 0 0.6392157 1 0 0 0.6352941 1 0 0 0.1411765 1 0 0 0.1372549 1 0 0 0.4156863 1 0 0 0.1372549 1 0 0 0.1411765 1 0 0 0.6196079 1 0 0 0.6117647 1 0 0 0.6196079 1 0 0 0.1411765 1 0 0 0.6196079 1 0 0 0.6117647 1 0 0 0.06274509 1 0 0 0.05882352 1 0 0 0.06274509 1 0 0 0.6117647 1 0 0 0.06274509 1 0 0 0.05882352 1 0 0 0 1 0 0 0.05490195 1 0 0 0 1 0 0 0.05882352 1 0 0 0 1 0 0 0.05490195 1 0 0 0.05098038 1 0 0 0.6078432 1 0 0 0.05098038 1 0 0 0.05490195 1 0 0 0.05098038 1 0 0 0.6078432 1 0 0 0.6039216 1 0 0 0.1490196 1 0 0 0.6039216 1 0 0 0.6078432 1 0 0 0.6039216 1 0 0 0.1490196 1 0 0 0.1607843 1 0 0 0.1019608 1 0 0 0.5450981 1 0 0 0.5176471 1 0 0 0.5450981 1 0 0 0.1019608 1 0 0 0.5529412 1 0 0 0.1098039 1 0 0 0.5529412 1 0 0 0.1019608 1 0 0 0.5529412 1 0 0 0.1098039 1 0 0 0.5607843 1 0 0 0.6588236 1 0 0 0.5607843 1 0 0 0.1098039 1 0 0 0.5607843 1 0 0 0.6588236 1 0 0 0.2705882 1 0 0 0.2745098 1 0 0 0.2705882 1 0 0 0.6588236 1 0 0 0.2705882 1 0 0 0.2745098 1 0 0 0.2666667 1 0 0 0.2784314 1 0 0 0.2666667 1 0 0 0.2745098 1 0 0 0.2666667 1 0 0 0.2784314 1 0 0 0.5333334 1 0 0 0.427451 1 0 0 0.4313725 1 0 0 0.1333333 1 0 0 0.4313725 1 0 0 0.427451 1 0 0 0.3058823 1 0 0 0.3098039 1 0 0 0.3058823 1 0 0 0.427451 1 0 0 0.3058823 1 0 0 0.3098039 1 0 0 0.2823529 1 0 0 0.3137255 1 0 0 0.2823529 1 0 0 0.3098039 1 0 0 0.2823529 1 0 0 0.3137255 1 0 0 0.317647 1 0 0 0.4196078 1 0 0 0.317647 1 0 0 0.3137255 1 0 0 0.317647 1 0 0 0.4196078 1 0 0 0.1176471 1 0 0 0.1137255 1 0 0 0.1176471 1 0 0 0.4196078 1 0 0 0.5921569 1 0 0 0.1647059 1 0 0 0.5882353 1 0 0 0.1647059 1 0 0 0.5921569 1 0 0 0.1686275 1 0 0 0.5960785 1 0 0 0.1686275 1 0 0 0.5921569 1 0 0 0.1686275 1 0 0 0.5960785 1 0 0 0.1607843 1 0 0 0.6 1 0 0 0.1607843 1 0 0 0.5960785 1 0 0 0.1607843 1 0 0 0.6 1 0 0 0.6039216 1 0 0 0.0117647 1 0 0 0.6039216 1 0 0 0.6 1 0 0 0.6039216 1 0 0 0.0117647 1 0 0 0.05098038 1 0 0 0 1 0 0 0.05098038 1 0 0 0.0117647 1 0 0 0.2313725 1 0 0 0.4588235 1 0 0 0.4666666 1 0 0 0.4588235 1 0 0 0.2313725 1 0 0 0.254902 1 0 0 0.2509804 1 0 0 0.254902 1 0 0 0.2313725 1 0 0 0.254902 1 0 0 0.2509804 1 0 0 0.1960784 1 0 0 0.2078431 1 0 0 0.1960784 1 0 0 0.2509804 1 0 0 0.1960784 1 0 0 0.2078431 1 0 0 0.1843137 1 0 0 0.1921569 1 0 0 0.1843137 1 0 0 0.2078431 1 0 0 0.6352941 1 0 0 0.3843137 1 0 0 0.3647059 1 0 0 0.3843137 1 0 0 0.6352941 1 0 0 0.3882353 1 0 0 0.627451 1 0 0 0.3882353 1 0 0 0.6352941 1 0 0 0.3882353 1 0 0 0.627451 1 0 0 0.3921568 1 0 0 0.6235294 1 0 0 0.3921568 1 0 0 0.627451 1 0 0 0.3921568 1 0 0 0.6235294 1 0 0 0.3960784 1 0 0 0.1568627 1 0 0 0.3960784 1 0 0 0.6235294 1 0 0 0.5019608 1 0 0 0.4941176 1 0 0 0.09411764 1 0 0 0.4941176 1 0 0 0.5019608 1 0 0 0.4980392 1 0 0 0.5058824 1 0 0 0.4980392 1 0 0 0.5019608 1 0 0 0.4980392 1 0 0 0.5058824 1 0 0 0.5686275 1 0 0 0.5137255 1 0 0 0.5686275 1 0 0 0.5058824 1 0 0 0.5686275 1 0 0 0.5137255 1 0 0 0.5490196 1 0 0 0.5960785 1 0 0 0.003921568 1 0 0 0.6 1 0 0 0.003921568 1 0 0 0.5960785 1 0 0 0.007843136 1 0 0 0.5921569 1 0 0 0.007843136 1 0 0 0.5960785 1 0 0 0.007843136 1 0 0 0.5921569 1 0 0 0.04705882 1 0 0 0.5882353 1 0 0 0.04705882 1 0 0 0.5921569 1 0 0 0.04705882 1 0 0 0.5882353 1 0 0 0.5843138 1 0 0 0.1372549 1 0 0 0.2627451 1 0 0 0.1294118 1 0 0 0.2627451 1 0 0 0.1372549 1 0 0 0.6156863 1 0 0 0.6196079 1 0 0 0.6156863 1 0 0 0.1372549 1 0 0 0.6156863 1 0 0 0.6196079 1 0 0 0.07843136 1 0 0 0.06274509 1 0 0 0.07843136 1 0 0 0.6196079 1 0 0 0.07843136 1 0 0 0.06274509 1 0 0 0 1 0 0 0.254902 1 0 0 0.4470588 1 0 0 0.4588235 1 0 0 0.4470588 1 0 0 0.254902 1 0 0 0.2 1 0 0 0.1960784 1 0 0 0.2 1 0 0 0.254902 1 0 0 0.2 1 0 0 0.1960784 1 0 0 0.09019607 1 0 0 0.1882353 1 0 0 0.09019607 1 0 0 0.1960784 1 0 0 0.6509804 1 0 0 0.3803921 1 0 0 0.6470589 1 0 0 0.3803921 1 0 0 0.6509804 1 0 0 0.3764706 1 0 0 0.6431373 1 0 0 0.3764706 1 0 0 0.6509804 1 0 0 0.3764706 1 0 0 0.6431373 1 0 0 0.372549 1 0 0 0.6313726 1 0 0 0.372549 1 0 0 0.6431373 1 0 0 0.6117647 1 0 0 0.05490195 1 0 0 0.05882352 1 0 0 0.05490195 1 0 0 0.6117647 1 0 0 0.6078432 1 0 0 0.1529412 1 0 0 0.6078432 1 0 0 0.6117647 1 0 0 0.6078432 1 0 0 0.1529412 1 0 0 0.1490196 1 0 0 0.145098 1 0 0 0.1490196 1 0 0 0.1529412 1 0 0 0.2078431 1 0 0 0.2039216 1 0 0 0.2588235 1 0 0 0.2039216 1 0 0 0.2078431 1 0 0 0.2117647 1 0 0 0.2509804 1 0 0 0.2117647 1 0 0 0.2078431 1 0 0 0.2117647 1 0 0 0.2509804 1 0 0 0.227451 1 0 0 0.2313725 1 0 0 0.227451 1 0 0 0.2509804 1 0 0 0.172549 1 0 0 0.5803922 1 0 0 0.1764706 1 0 0 0.5803922 1 0 0 0.172549 1 0 0 0.5764706 1 0 0 0.1803922 1 0 0 0.5764706 1 0 0 0.172549 1 0 0 0.5764706 1 0 0 0.1803922 1 0 0 0.5725491 1 0 0 0.2588235 1 0 0 0.5725491 1 0 0 0.1803922 1 0 0 0.5686275 1 0 0 0.4705882 1 0 0 0.4627451 1 0 0 0.4705882 1 0 0 0.5686275 1 0 0 0.5215687 1 0 0 0.5254902 1 0 0 0.5215687 1 0 0 0.5686275 1 0 0 0.5215687 1 0 0 0.5254902 1 0 0 0.2352941 1 0 0 0.2392157 1 0 0 0.2352941 1 0 0 0.5254902 1 0 0 0.2156863 1 0 0 0.4666666 1 0 0 0.2470588 1 0 0 0.4666666 1 0 0 0.2156863 1 0 0 0.2313725 1 0 0 0.2235294 1 0 0 0.2313725 1 0 0 0.2156863 1 0 0 0.2313725 1 0 0 0.2235294 1 0 0 0.227451 1 0 0 0.1333333 1 0 0 0.4235294 1 0 0 0.427451 1 0 0 0.4235294 1 0 0 0.1333333 1 0 0 0.1215686 1 0 0 0.1254902 1 0 0 0.1215686 1 0 0 0.1333333 1 0 0 0.1215686 1 0 0 0.1254902 1 0 0 0.1137255 1 0 0 0.003921568 1 0 0 0.0117647 1 0 0 0.6 1 0 0 0.0117647 1 0 0 0.003921568 1 0 0 0 1 0 0 0.007843136 1 0 0 0 1 0 0 0.003921568 1 0 0 0 1 0 0 0.007843136 1 0 0 0.04705882 1 0 0 0.4039216 1 0 0 0.2862745 1 0 0 0.4352941 1 0 0 0.2862745 1 0 0 0.4039216 1 0 0 0.2901961 1 0 0 0.4 1 0 0 0.2901961 1 0 0 0.4039216 1 0 0 0.2901961 1 0 0 0.4 1 0 0 0.3294118 1 0 0 0.2862745 1 0 0 0.2941176 1 0 0 0.4352941 1 0 0 0.2941176 1 0 0 0.2862745 1 0 0 0.2823529 1 0 0 0.2901961 1 0 0 0.2823529 1 0 0 0.2862745 1 0 0 0.2823529 1 0 0 0.2901961 1 0 0 0.3294118 1 0 0 0.2980392 1 0 0 0.3019608 1 0 0 0.4313725 1 0 0 0.3019608 1 0 0 0.2980392 1 0 0 0.2823529 1 0 0 0.3058823 1 0 0 0.2823529 1 0 0 0.2980392 1 0 0 0.2 1 0 0 0.4392157 1 0 0 0.4470588 1 0 0 0.4392157 1 0 0 0.2 1 0 0 0.0862745 1 0 0 0.09019607 1 0 0 0.0862745 1 0 0 0.2 1 0 0 0.5764706 1 0 0 0.03921568 1 0 0 0.5803922 1 0 0 0.03921568 1 0 0 0.5764706 1 0 0 0.01960784 1 0 0 0.5725491 1 0 0 0.01960784 1 0 0 0.5764706 1 0 0 0.4784314 1 0 0 0.4392157 1 0 0 0.0862745 1 0 0 0.4392157 1 0 0 0.4784314 1 0 0 0.4745098 1 0 0 0.4823529 1 0 0 0.4745098 1 0 0 0.4784314 1 0 0 0.07450979 1 0 0 0.2627451 1 0 0 0.6156863 1 0 0 0.2627451 1 0 0 0.07450979 1 0 0 0.07058823 1 0 0 0 1 0 0 0.07058823 1 0 0 0.07450979 1 0 0 0.4235294 1 0 0 0.3098039 1 0 0 0.427451 1 0 0 0.3098039 1 0 0 0.4235294 1 0 0 0.3137255 1 0 0 0.4196078 1 0 0 0.3137255 1 0 0 0.4235294 1 0 0 0.4117647 1 0 0 0.4078431 1 0 0 0.1411765 1 0 0 0.4078431 1 0 0 0.4117647 1 0 0 0.3254902 1 0 0 0.3215686 1 0 0 0.3254902 1 0 0 0.4117647 1 0 0 0.1529412 1 0 0 0.4078431 1 0 0 0.145098 1 0 0 0.4078431 1 0 0 0.1529412 1 0 0 0.1411765 1 0 0 0.6117647 1 0 0 0.1411765 1 0 0 0.1529412 1 0 0 0.5686275 1 0 0 0.4431372 1 0 0 0.4509804 1 0 0 0.4431372 1 0 0 0.5686275 1 0 0 0.4549019 1 0 0 0.4627451 1 0 0 0.4549019 1 0 0 0.5686275 1 0 0 0.3764706 1 0 0 0.3490196 1 0 0 0.3803921 1 0 0 0.3490196 1 0 0 0.3764706 1 0 0 0.3529412 1 0 0 0.372549 1 0 0 0.3529412 1 0 0 0.3764706 1 0 0 0.1058824 1 0 0 0.5176471 1 0 0 0.0980392 1 0 0 0.5176471 1 0 0 0.1058824 1 0 0 0.1019608 1 0 0 0.654902 1 0 0 0.2745098 1 0 0 0.6588236 1 0 0 0.2745098 1 0 0 0.654902 1 0 0 0.6470589 1 0 0 0.04313725 1 0 0 0.04705882 1 0 0 0.5843138 1 0 0 0.04705882 1 0 0 0.04313725 1 0 0 0 1 0 0 0.4901961 1 0 0 0.4980392 1 0 0 0.5686275 1 0 0 0.4980392 1 0 0 0.4901961 1 0 0 0.4941176 1 0 0 0.5294118 1 0 0 0.5254902 1 0 0 0.5686275 1 0 0 0.5254902 1 0 0 0.5294118 1 0 0 0.2392157 1 0 0 0.07843136 1 0 0 0.07450979 1 0 0 0.6156863 1 0 0 0.07450979 1 0 0 0.07843136 1 0 0 0 1 0 0 0.5568628 1 0 0 0.5686275 1 0 0 0.5490196 1 0 0 0.5686275 1 0 0 0.5568628 1 0 0 0.5647059 1 0 0 0.08235293 1 0 0 0.4784314 1 0 0 0.0862745 1 0 0 0.4784314 1 0 0 0.08235293 1 0 0 0.4862745 1 0 0 0.2666667 1 0 0 0.5372549 1 0 0 0.2705882 1 0 0 0.5372549 1 0 0 0.2666667 1 0 0 0.5333334 1 0 0 0.06666666 1 0 0 0 1 0 0 0.03529411 1 0 0 0 1 0 0 0.06666666 1 0 0 0.07058823 1 0 0 0.03137254 1 0 0 0 1 0 0 0.02745097 1 0 0 0 1 0 0 0.03137254 1 0 0 0.03529411 1 0 0 0.02352941 1 0 0 0 1 0 0 0.01568627 1 0 0 0 1 0 0 0.02352941 1 0 0 0.02745097 1 0 0 0.2431373 1 0 0 0.5215687 1 0 0 0.2352941 1 0 0 0.5215687 1 0 0 0.2431373 1 0 0 0.4705882 1 0 0 0.5058824 1 0 0 0.509804 1 0 0 0.5137255 1 0 0 0.509804 1 0 0 0.5058824 1 0 0 0.5019608 1 0 0 0.1921569 1 0 0 0.2588235 1 0 0 0.1803922 1 0 0 0.2588235 1 0 0 0.1921569 1 0 0 0.2078431 1 0 0 0.3686274 1 0 0 0.3607843 1 0 0 0.3568627 1 0 0 0.3607843 1 0 0 0.3686274 1 0 0 0.3647059 1 0 0 0.3411765 1 0 0 0.2823529 1 0 0 0.345098 1 0 0 0.2823529 1 0 0 0.3411765 1 0 0 0.3372549 1 0 0 0.3333333 1 0 0 0.2823529 1 0 0 0.3372549 1 0 0 0.2823529 1 0 0 0.3333333 1 0 0 0.2941176 1 0 0 0.4156863 1 0 0 0.4117647 1 0 0 0.1411765 1 0 0 0.4117647 1 0 0 0.4156863 1 0 0 0.3215686 1 0 0 0.1215686 1 0 0 0.4196078 1 0 0 0.4235294 1 0 0 0.4196078 1 0 0 0.1215686 1 0 0 0.1137255 1 0 0 0.2156863 1 0 0 0.2196078 1 0 0 0.2235294 1 0 0 0.5411765 1 0 0 0.5686275 1 0 0 0.5647059 1 0 0 0.4784314 1 0 0 0.4862745 1 0 0 0.4823529 1 0 0 0.1843137 1 0 0 0.1882353 1 0 0 0.1960784 1 0 0 0.4313725 1 0 0 0.3058823 1 0 0 0.2980392 1</float_array>
          <technique_common>
            <accessor source="#farm_1-mesh-colors-v_color_0-array" count="918" stride="4">
              <param name="R" type="float"/>
              <param name="G" type="float"/>
              <param name="B" type="float"/>
              <param name="A" type="float"/>
            </accessor>
          </technique_common>
        </source>
        <vertices id="farm_1-mesh-vertices">
          <input semantic="POSITION" source="#farm_1-mesh-positions"/>
        </vertices>
        <triangles material="tex_farm_v-material" count="306">
          <input semantic="VERTEX" source="#farm_1-mesh-vertices" offset="0"/>
          <input semantic="NORMAL" source="#farm_1-mesh-normals" offset="1"/>
          <input semantic="TEXCOORD" source="#farm_1-mesh-map-0" offset="2" set="0"/>
          <input semantic="COLOR" source="#farm_1-mesh-colors-v_color_0" offset="3" set="0"/>
          <p>148 0 0 0 113 0 1 1 153 0 2 2 113 0 3 3 148 0 4 4 115 0 5 5 117 0 6 6 115 0 7 7 148 0 8 8 115 0 9 9 117 0 10 10 116 0 11 11 125 0 12 12 116 0 13 13 117 0 14 14 116 0 15 15 125 0 16 16 124 0 17 17 127 0 18 18 124 0 19 19 125 0 20 20 124 0 21 21 127 0 22 22 126 0 23 23 129 0 24 24 126 0 25 25 127 0 26 26 126 0 27 27 129 0 28 28 128 0 29 29 55 0 30 30 128 0 31 31 129 0 32 32 128 0 33 33 55 0 34 34 123 0 35 35 122 0 36 36 123 0 37 37 55 0 38 38 123 0 39 39 122 0 40 40 130 0 41 41 121 0 42 42 130 0 43 43 122 0 44 44 130 0 45 45 121 0 46 46 120 0 47 47 57 0 48 48 120 0 49 49 121 0 50 50 120 0 51 51 57 0 52 52 45 0 53 53 25 0 54 54 45 0 55 55 57 0 56 56 45 0 57 57 25 0 58 58 46 0 59 59 27 0 60 60 46 0 61 61 25 0 62 62 46 0 63 63 27 0 64 64 47 0 65 65 48 0 66 66 47 0 67 67 27 0 68 68 47 0 69 69 48 0 70 70 105 0 71 71 104 0 72 72 105 0 73 73 48 0 74 74 105 0 75 75 104 0 76 76 103 0 77 77 102 0 78 78 103 0 79 79 104 0 80 80 103 0 81 81 102 0 82 82 101 0 83 83 97 0 84 84 101 0 85 85 102 0 86 86 101 0 87 87 97 0 88 88 98 0 89 89 99 0 90 90 98 0 91 91 97 0 92 92 98 0 93 93 99 0 94 94 100 0 95 95 106 0 96 96 100 0 97 97 99 0 98 98 100 0 99 99 106 0 100 100 130 0 101 101 108 0 102 102 130 0 103 103 106 0 104 104 130 0 105 105 108 0 106 106 110 0 107 107 109 0 108 108 110 0 109 109 108 0 110 110 110 0 111 111 109 0 112 112 111 0 113 113 152 0 114 114 111 0 115 115 109 0 116 116 111 0 117 117 152 0 118 118 153 0 119 119 26 0 120 120 27 0 121 121 25 0 122 122 27 0 123 123 26 0 124 124 28 0 125 125 95 0 126 126 28 0 127 127 26 0 128 128 28 0 129 129 95 0 130 130 92 0 131 131 62 0 132 132 92 0 133 133 95 0 134 134 92 0 135 135 62 0 136 136 68 0 137 137 60 0 138 138 68 0 139 139 62 0 140 140 68 0 141 141 60 0 142 142 69 0 143 143 70 0 144 144 69 0 145 145 60 0 146 146 69 0 147 147 70 0 148 148 90 1 149 149 88 2 150 150 90 1 151 151 70 0 152 152 90 1 153 153 88 2 154 154 31 3 155 155 89 4 156 156 31 3 157 157 88 2 158 158 31 3 159 159 89 4 160 160 158 5 161 161 96 0 162 162 158 5 163 163 89 4 164 164 158 5 165 165 96 0 166 166 87 0 167 167 61 0 168 168 87 0 169 169 96 0 170 170 87 0 171 171 61 0 172 172 86 0 173 173 71 0 174 174 86 0 175 175 61 0 176 176 86 0 177 177 71 0 178 178 85 0 179 179 72 0 180 180 85 0 181 181 71 0 182 182 85 0 183 183 72 0 184 184 84 0 185 185 73 0 186 186 84 0 187 187 72 0 188 188 84 0 189 189 73 0 190 190 80 0 191 191 74 0 192 192 80 0 193 193 73 0 194 194 80 0 195 195 74 0 196 196 78 0 197 197 60 0 198 198 78 0 199 199 74 0 200 200 78 0 201 201 60 0 202 202 77 0 203 203 157 0 204 204 135 0 205 205 156 0 206 206 135 0 207 207 157 0 208 208 134 0 209 209 133 0 210 210 134 0 211 211 157 0 212 212 134 0 213 213 133 0 214 214 11 0 215 215 10 0 216 216 11 0 217 217 133 0 218 218 11 0 219 219 10 0 220 220 2 0 221 221 4 0 222 222 2 0 223 223 10 0 224 224 2 0 225 225 4 0 226 226 5 0 227 227 132 0 228 228 5 0 229 229 4 0 230 230 5 0 231 231 132 0 232 232 6 0 233 233 52 0 234 234 6 0 235 235 132 0 236 236 6 0 237 237 52 0 238 238 7 0 239 239 39 0 240 240 7 0 241 241 52 0 242 242 7 0 243 243 39 0 244 244 8 0 245 245 37 0 246 246 8 0 247 247 39 0 248 248 8 0 249 249 37 0 250 250 9 0 251 251 44 0 252 252 9 0 253 253 37 0 254 254 9 0 255 255 44 0 256 256 17 0 257 257 40 0 258 258 17 0 259 259 44 0 260 260 17 0 261 261 40 0 262 262 18 0 263 263 41 0 264 264 18 0 265 265 40 0 266 266 18 0 267 267 41 0 268 268 53 0 269 269 42 0 270 270 53 0 271 271 41 0 272 272 53 0 273 273 42 0 274 274 27 0 275 275 48 0 276 276 27 0 277 277 42 0 278 278 54 0 279 279 25 0 280 280 57 0 281 281 25 0 282 282 54 0 283 283 23 0 284 284 165 0 285 285 23 0 286 286 54 0 287 287 23 0 288 288 165 0 289 289 22 0 290 290 83 0 291 291 22 0 292 292 165 0 293 293 22 0 294 294 83 0 295 295 67 0 296 296 75 0 297 297 67 0 298 298 83 0 299 299 67 0 300 300 75 0 301 301 60 0 302 302 76 0 303 303 60 0 304 304 75 0 305 305 60 0 306 306 76 0 307 307 77 0 308 308 81 0 309 309 77 0 310 310 76 0 311 311 77 0 312 312 81 0 313 313 79 0 314 314 161 0 315 315 79 0 316 316 81 0 317 317 79 0 318 318 161 0 319 319 80 0 320 320 163 0 321 321 80 0 322 322 161 0 323 323 80 0 324 324 163 0 325 325 162 0 326 326 33 0 327 327 28 0 328 328 92 0 329 329 28 0 330 330 33 0 331 331 142 0 332 332 32 0 333 333 142 0 334 334 33 0 335 335 142 0 336 336 32 0 337 337 16 0 338 338 15 0 339 339 16 0 340 340 32 0 341 341 16 0 342 342 15 0 343 343 2 0 344 344 14 0 345 345 2 0 346 346 15 0 347 347 2 0 348 348 14 0 349 349 13 0 350 350 140 0 351 351 13 0 352 352 14 0 353 353 13 0 354 354 140 0 355 355 139 0 356 356 30 6 357 357 139 0 358 358 140 0 359 359 139 0 360 360 30 6 361 361 154 0 362 362 150 0 363 363 125 0 364 364 117 0 365 365 125 0 366 366 150 0 367 367 127 0 368 368 151 0 369 369 127 0 370 370 150 0 371 371 127 0 372 372 151 0 373 373 129 0 374 374 168 0 375 375 129 0 376 376 151 0 377 377 129 0 378 378 168 0 379 379 55 0 380 380 54 0 381 381 55 0 382 382 168 0 383 383 55 0 384 384 54 0 385 385 56 0 386 386 57 0 387 387 56 0 388 388 54 0 389 389 56 0 390 390 57 0 391 391 121 0 392 392 94 0 393 393 95 0 394 394 26 0 395 395 95 0 396 396 94 0 397 397 64 0 398 398 65 0 399 399 64 0 400 400 94 0 401 401 64 0 402 402 65 0 403 403 60 0 404 404 66 0 405 405 60 0 406 406 65 0 407 407 60 0 408 408 66 0 409 409 67 0 410 410 21 0 411 411 67 0 412 412 66 0 413 413 67 0 414 414 21 0 415 415 22 0 416 416 23 0 417 417 22 0 418 418 21 0 419 419 136 0 420 420 156 0 421 421 135 0 422 422 156 0 423 423 136 0 424 424 155 0 425 425 137 0 426 426 155 0 427 427 136 0 428 428 155 0 429 429 137 0 430 430 154 0 431 431 138 0 432 432 154 0 433 433 137 0 434 434 154 0 435 435 138 0 436 436 139 0 437 437 3 0 438 438 139 0 439 439 138 0 440 440 139 0 441 441 3 0 442 442 13 0 443 443 2 0 444 444 13 0 445 445 3 0 446 446 43 0 447 447 102 0 448 448 104 0 449 449 102 0 450 450 43 0 451 451 50 0 452 452 49 0 453 453 50 0 454 454 43 0 455 455 50 0 456 456 49 0 457 457 51 0 458 458 38 0 459 459 51 0 460 460 49 0 461 461 51 0 462 462 38 0 463 463 146 0 464 464 143 0 465 465 146 0 466 466 38 0 467 467 162 0 468 468 84 0 469 469 80 0 470 470 84 0 471 471 162 0 472 472 85 0 473 473 160 0 474 474 85 0 475 475 162 0 476 476 85 0 477 477 160 0 478 478 86 0 479 479 159 0 480 480 86 0 481 481 160 0 482 482 86 0 483 483 159 0 484 484 87 0 485 485 158 5 486 486 87 0 487 487 159 0 488 488 113 0 489 489 111 0 490 490 153 0 491 491 111 0 492 492 113 0 493 493 112 0 494 494 114 0 495 495 112 0 496 496 113 0 497 497 112 0 498 498 114 0 499 499 130 0 500 500 116 0 501 501 130 0 502 502 114 0 503 503 130 0 504 504 116 0 505 505 124 0 506 506 137 0 507 507 1 0 508 508 138 0 509 509 1 0 510 510 137 0 511 511 0 0 512 512 136 0 513 513 0 0 514 514 137 0 515 515 0 0 516 516 136 0 517 517 12 0 518 518 135 0 519 519 12 0 520 520 136 0 521 521 12 0 522 522 135 0 523 523 134 0 524 524 28 0 525 525 53 0 526 526 27 0 527 527 53 0 528 528 28 0 529 529 141 0 530 530 142 0 531 531 141 0 532 532 28 0 533 533 141 0 534 534 142 0 535 535 20 0 536 536 16 0 537 537 20 0 538 538 142 0 539 539 20 0 540 540 16 0 541 541 2 0 542 542 50 0 543 543 97 0 544 544 102 0 545 545 97 0 546 546 50 0 547 547 35 0 548 548 51 0 549 549 35 0 550 550 50 0 551 551 35 0 552 552 51 0 553 553 34 0 554 554 147 0 555 555 34 0 556 556 51 0 557 557 166 0 558 558 83 0 559 559 165 0 560 560 83 0 561 561 166 0 562 562 82 0 563 563 164 0 564 564 82 0 565 565 166 0 566 566 82 0 567 567 164 0 568 568 81 0 569 569 161 0 570 570 81 0 571 571 164 0 572 572 32 0 573 573 14 0 574 574 15 0 575 575 14 0 576 576 32 0 577 577 140 0 578 578 29 7 579 579 140 0 580 580 32 0 581 581 140 0 582 582 29 7 583 583 30 6 584 584 31 3 585 585 30 6 586 586 29 7 587 587 38 0 588 588 39 0 589 589 52 0 590 590 39 0 591 591 38 0 592 592 37 0 593 593 49 0 594 594 37 0 595 595 38 0 596 596 37 0 597 597 49 0 598 598 44 0 599 599 43 0 600 600 44 0 601 601 49 0 602 602 145 0 603 603 133 0 604 604 157 0 605 605 133 0 606 606 145 0 607 607 131 0 608 608 144 0 609 609 131 0 610 610 145 0 611 611 131 0 612 612 144 0 613 613 132 0 614 614 52 0 615 615 132 0 616 616 144 0 617 617 130 0 618 618 105 0 619 619 103 0 620 620 105 0 621 621 130 0 622 622 118 0 623 623 119 0 624 624 118 0 625 625 130 0 626 626 118 0 627 627 119 0 628 628 46 0 629 629 45 0 630 630 46 0 631 631 119 0 632 632 42 0 633 633 104 0 634 634 48 0 635 635 104 0 636 636 42 0 637 637 43 0 638 638 40 0 639 639 43 0 640 640 42 0 641 641 43 0 642 642 40 0 643 643 44 0 644 644 26 0 645 645 93 0 646 646 94 0 647 647 93 0 648 648 26 0 649 649 24 0 650 650 25 0 651 651 24 0 652 652 26 0 653 653 24 0 654 654 25 0 655 655 23 0 656 656 1 0 657 657 3 0 658 658 138 0 659 659 3 0 660 660 1 0 661 661 2 0 662 662 0 0 663 663 2 0 664 664 1 0 665 665 2 0 666 666 0 0 667 667 12 0 668 668 89 4 669 669 59 0 670 670 96 0 671 671 59 0 672 672 89 4 673 673 58 0 674 674 88 2 675 675 58 0 676 676 89 4 677 677 58 0 678 678 88 2 679 679 70 0 680 680 59 0 681 681 61 0 682 682 96 0 683 683 61 0 684 684 59 0 685 685 60 0 686 686 58 0 687 687 60 0 688 688 59 0 689 689 60 0 690 690 58 0 691 691 70 0 692 692 63 0 693 693 62 0 694 694 95 0 695 695 62 0 696 696 63 0 697 697 60 0 698 698 64 0 699 699 60 0 700 700 63 0 701 701 35 0 702 702 99 0 703 703 97 0 704 704 99 0 705 705 35 0 706 706 36 0 707 707 34 0 708 708 36 0 709 709 35 0 710 710 131 0 711 711 10 0 712 712 133 0 713 713 10 0 714 714 131 0 715 715 4 0 716 716 132 0 717 717 4 0 718 718 131 0 719 719 107 0 720 720 99 0 721 721 36 0 722 722 99 0 723 723 107 0 724 724 106 0 725 725 108 0 726 726 106 0 727 727 107 0 728 728 19 0 729 729 53 0 730 730 141 0 731 731 53 0 732 732 19 0 733 733 18 0 734 734 2 0 735 735 18 0 736 736 19 0 737 737 93 0 738 738 65 0 739 739 94 0 740 740 65 0 741 741 93 0 742 742 66 0 743 743 21 0 744 744 66 0 745 745 93 0 746 746 91 0 747 747 90 1 748 748 33 0 749 749 90 1 750 750 91 0 751 751 69 0 752 752 68 0 753 753 69 0 754 754 91 0 755 755 29 7 756 756 90 1 757 757 31 3 758 758 90 1 759 759 29 7 760 760 33 0 761 761 32 0 762 762 33 0 763 763 29 7 764 764 130 0 765 765 98 0 766 766 100 0 767 767 98 0 768 768 130 0 769 769 101 0 770 770 103 0 771 771 101 0 772 772 130 0 773 773 82 0 774 774 75 0 775 775 83 0 776 776 75 0 777 777 82 0 778 778 76 0 779 779 81 0 780 780 76 0 781 781 82 0 782 782 149 0 783 783 117 0 784 784 148 0 785 785 117 0 786 786 149 0 787 787 150 0 788 788 167 0 789 789 54 0 790 790 168 0 791 791 54 0 792 792 167 0 793 793 165 0 794 794 11 0 795 795 12 0 796 796 134 0 797 797 12 0 798 798 11 0 799 799 2 0 800 800 110 0 801 801 112 0 802 802 130 0 803 803 112 0 804 804 110 0 805 805 111 0 806 806 120 0 807 807 119 0 808 808 130 0 809 809 119 0 810 810 120 0 811 811 45 0 812 812 20 0 813 813 19 0 814 814 141 0 815 815 19 0 816 816 20 0 817 817 2 0 818 818 126 0 819 819 130 0 820 820 124 0 821 821 130 0 822 822 126 0 823 823 128 0 824 824 152 0 825 825 107 0 826 826 36 0 827 827 107 0 828 828 152 0 829 829 109 0 830 830 56 0 831 831 122 0 832 832 55 0 833 833 122 0 834 834 56 0 835 835 121 0 836 836 17 0 837 837 2 0 838 838 9 0 839 839 2 0 840 840 17 0 841 841 18 0 842 842 8 0 843 843 2 0 844 844 7 0 845 845 2 0 846 846 8 0 847 847 9 0 848 848 6 0 849 849 2 0 850 850 5 0 851 851 2 0 852 852 6 0 853 853 7 0 854 854 47 0 855 855 118 0 856 856 46 0 857 857 118 0 858 858 47 0 859 859 105 0 860 860 114 0 861 861 115 0 862 862 116 0 863 863 115 0 864 864 114 0 865 865 113 0 866 866 143 0 867 867 52 0 868 868 144 0 869 869 52 0 870 870 143 0 871 871 38 0 872 872 79 0 873 873 78 0 874 874 77 0 875 875 78 0 876 876 79 0 877 877 80 0 878 878 73 0 879 879 60 0 880 880 74 0 881 881 60 0 882 882 73 0 883 883 72 0 884 884 71 0 885 885 60 0 886 886 72 0 887 887 60 0 888 888 71 0 889 889 61 0 890 890 92 0 891 891 91 0 892 892 33 0 893 893 91 0 894 894 92 0 895 895 68 0 896 896 24 0 897 897 21 0 898 898 93 0 899 899 21 0 900 900 24 0 901 901 23 0 902 902 42 0 903 903 41 0 904 904 40 0 905 905 123 0 906 906 130 0 907 907 128 0 908 908 107 0 909 909 109 0 910 910 108 0 911 911 146 0 912 912 147 0 913 913 51 0 914 914 95 0 915 915 64 0 916 916 63 0 917 917</p>
        </triangles>
      </mesh>
    </geometry>
  </library_geometries>
  <library_controllers>
    <controller id="Armature_farm_1-skin" name="Armature">
      <skin source="#farm_1-mesh">
        <bind_shape_matrix>1 0 0 0 0 1 0 0 0 0 1 0 0 0 0 1</bind_shape_matrix>
        <source id="Armature_farm_1-skin-joints">
          <Name_array id="Armature_farm_1-skin-joints-array" count="1">world_root</Name_array>
          <technique_common>
            <accessor source="#Armature_farm_1-skin-joints-array" count="1" stride="1">
              <param name="JOINT" type="name"/>
            </accessor>
          </technique_common>
        </source>
        <source id="Armature_farm_1-skin-bind_poses">
          <float_array id="Armature_farm_1-skin-bind_poses-array" count="16">100 0 0 0 0 100 0 0 0 0 100 0 0 0 0 1</float_array>
          <technique_common>
            <accessor source="#Armature_farm_1-skin-bind_poses-array" count="1" stride="16">
              <param name="TRANSFORM" type="float4x4"/>
            </accessor>
          </technique_common>
        </source>
        <source id="Armature_farm_1-skin-weights">
          <float_array id="Armature_farm_1-skin-weights-array" count="169">1 1 1 1 1 1 1 1 1 1 1 1 1 1 1 1 1 1 1 1 1 1 1 1 1 1 1 1 1 1 1 1 1 1 1 1 1 1 1 1 1 1 1 1 1 1 1 1 1 1 1 1 1 1 1 1 1 1 1 1 1 1 1 1 1 1 1 1 1 1 1 1 1 1 1 1 1 1 1 1 1 1 1 1 1 1 1 1 1 1 1 1 1 1 1 1 1 1 1 1 1 1 1 1 1 1 1 1 1 1 1 1 1 1 1 1 1 1 1 1 1 1 1 1 1 1 1 1 1 1 1 1 1 1 1 1 1 1 1 1 1 1 1 1 1 1 1 1 1 1 1 1 1 1 1 1 1 1 1 1 1 1 1 1 1 1 1 1 1</float_array>
          <technique_common>
            <accessor source="#Armature_farm_1-skin-weights-array" count="169" stride="1">
              <param name="WEIGHT" type="float"/>
            </accessor>
          </technique_common>
        </source>
        <joints>
          <input semantic="JOINT" source="#Armature_farm_1-skin-joints"/>
          <input semantic="INV_BIND_MATRIX" source="#Armature_farm_1-skin-bind_poses"/>
        </joints>
        <vertex_weights count="169">
          <input semantic="JOINT" source="#Armature_farm_1-skin-joints" offset="0"/>
          <input semantic="WEIGHT" source="#Armature_farm_1-skin-weights" offset="1"/>
          <vcount>1 1 1 1 1 1 1 1 1 1 1 1 1 1 1 1 1 1 1 1 1 1 1 1 1 1 1 1 1 1 1 1 1 1 1 1 1 1 1 1 1 1 1 1 1 1 1 1 1 1 1 1 1 1 1 1 1 1 1 1 1 1 1 1 1 1 1 1 1 1 1 1 1 1 1 1 1 1 1 1 1 1 1 1 1 1 1 1 1 1 1 1 1 1 1 1 1 1 1 1 1 1 1 1 1 1 1 1 1 1 1 1 1 1 1 1 1 1 1 1 1 1 1 1 1 1 1 1 1 1 1 1 1 1 1 1 1 1 1 1 1 1 1 1 1 1 1 1 1 1 1 1 1 1 1 1 1 1 1 1 1 1 1 1 1 1 1 1 1 </vcount>
          <v>0 0 0 1 0 2 0 3 0 4 0 5 0 6 0 7 0 8 0 9 0 10 0 11 0 12 0 13 0 14 0 15 0 16 0 17 0 18 0 19 0 20 0 21 0 22 0 23 0 24 0 25 0 26 0 27 0 28 0 29 0 30 0 31 0 32 0 33 0 34 0 35 0 36 0 37 0 38 0 39 0 40 0 41 0 42 0 43 0 44 0 45 0 46 0 47 0 48 0 49 0 50 0 51 0 52 0 53 0 54 0 55 0 56 0 57 0 58 0 59 0 60 0 61 0 62 0 63 0 64 0 65 0 66 0 67 0 68 0 69 0 70 0 71 0 72 0 73 0 74 0 75 0 76 0 77 0 78 0 79 0 80 0 81 0 82 0 83 0 84 0 85 0 86 0 87 0 88 0 89 0 90 0 91 0 92 0 93 0 94 0 95 0 96 0 97 0 98 0 99 0 100 0 101 0 102 0 103 0 104 0 105 0 106 0 107 0 108 0 109 0 110 0 111 0 112 0 113 0 114 0 115 0 116 0 117 0 118 0 119 0 120 0 121 0 122 0 123 0 124 0 125 0 126 0 127 0 128 0 129 0 130 0 131 0 132 0 133 0 134 0 135 0 136 0 137 0 138 0 139 0 140 0 141 0 142 0 143 0 144 0 145 0 146 0 147 0 148 0 149 0 150 0 151 0 152 0 153 0 154 0 155 0 156 0 157 0 158 0 159 0 160 0 161 0 162 0 163 0 164 0 165 0 166 0 167 0 168</v>
        </vertex_weights>
      </skin>
    </controller>
  </library_controllers>
  <library_visual_scenes>
    <visual_scene id="Scene" name="Scene">
      <node id="Armature" name="Armature" type="NODE">
        <matrix sid="transform">0.01 0 0 0 0 0.01 0 0 0 0 0.01 0 0 0 0 1</matrix>
        <node id="Armature_world_root" name="world_root" sid="world_root" type="JOINT">
          <matrix sid="transform">1 0 0 0 0 1 0 0 0 0 1 0 0 0 0 1</matrix>
          <extra>
            <technique profile="blender">
              <layer sid="layer" type="string">0</layer>
              <tip_x sid="tip_x" type="float">0</tip_x>
              <tip_y sid="tip_y" type="float">10</tip_y>
              <tip_z sid="tip_z" type="float">0</tip_z>
            </technique>
          </extra>
        </node>
        <node id="farm_1" name="farm_1" type="NODE">
          <matrix sid="transform">1 0 0 0 0 1 0 0 0 0 1 0 0 0 0 1</matrix>
          <instance_controller url="#Armature_farm_1-skin">
            <skeleton>#Armature_world_root</skeleton>
            <bind_material>
              <technique_common>
                <instance_material symbol="tex_farm_v-material" target="#tex_farm_v-material">
                  <bind_vertex_input semantic="UV 0" input_semantic="TEXCOORD" input_set="0"/>
                </instance_material>
              </technique_common>
            </bind_material>
          </instance_controller>
        </node>
      </node>
    </visual_scene>
  </library_visual_scenes>
  <scene>
    <instance_visual_scene url="#Scene"/>
  </scene>
</COLLADA>